<?xml version="1.0" encoding="utf-8"?>
<!-- Generator: Adobe Illustrator 16.0.0, SVG Export Plug-In . SVG Version: 6.00 Build 0)  -->
<!DOCTYPE svg PUBLIC "-//W3C//DTD SVG 1.1//EN" "http://www.w3.org/Graphics/SVG/1.1/DTD/svg11.dtd">
<svg version="1.1" xmlns="http://www.w3.org/2000/svg" xmlns:xlink="http://www.w3.org/1999/xlink" x="0px" y="0px"
	 width="204.236px" height="204.239px" viewBox="0 0 204.236 204.239" enable-background="new 0 0 204.236 204.239"
	 xml:space="preserve">
<g id="Susan-circle" display="none">
	<rect x="60.087" y="129.427" display="inline" fill="#15100D" width="84.928" height="50.441"/>
	<g display="inline">
		<linearGradient id="SVGID_1_" gradientUnits="userSpaceOnUse" x1="104.0308" y1="178.3506" x2="103.2039" y2="149.4108">
			<stop  offset="0" style="stop-color:#FBB891"/>
			<stop  offset="0.0265" style="stop-color:#FAB790"/>
			<stop  offset="0.3499" style="stop-color:#F2A97F"/>
			<stop  offset="0.6744" style="stop-color:#EEA176"/>
			<stop  offset="1" style="stop-color:#ED9F73"/>
		</linearGradient>
		<rect x="91.971" y="133.463" fill="url(#SVGID_1_)" width="22.818" height="44.21"/>
		<path fill="#838383" d="M63.759,197.013c0,0,1.171-20.858,16.827-19.34c15.655,1.516,49.797-2.904,55.096,1.502
			c5.301,4.408,5.662,18.32,5.662,18.32s-25.983,6.744-40.721,6.744C85.885,204.239,63.759,197.013,63.759,197.013z"/>
		<polygon fill="#DCDBDB" points="91.971,176.659 96.306,204.058 109.487,203.657 116.376,177.158 104.114,173.251 		"/>
		<path fill="#FBB891" d="M104.114,35.804c37.494,0,43.923,51.052,43.923,68.814c0,17.766-33.723,54.029-43.923,54.029
			s-43.921-29.489-43.921-50.941C60.193,86.252,64.529,35.804,104.114,35.804z"/>
		<path fill="#F9AD80" d="M141.765,118.409c0,3.184-15.639,5.763-34.936,5.763c-19.292,0-34.933-2.579-34.933-5.763
			c0-3.186,15.641-5.766,34.933-5.766C126.126,112.644,141.765,115.224,141.765,118.409z"/>
		<path fill="#DD8C5F" d="M109.367,134.386l-0.552-1.846c0.025-0.008,2.703-0.823,5.054-2.487c2.624-1.858,3.765-3.973,3.399-6.294
			l-9.224,1.464l-0.35-0.449c-0.233-0.301-2.268-3.312-1.742-16.382c0.655-16.308,9.664-26.494,10.048-26.92l1.433,1.289
			c-0.09,0.099-8.929,10.123-9.555,25.709c-0.385,9.563,0.646,13.408,1.126,14.649l9.679-1.535l0.243,0.805
			c0.59,1.961,0.414,3.839-0.524,5.582C116.043,132.35,109.638,134.305,109.367,134.386z"/>
		<path fill="#FFFFFF" d="M73.322,97.825c0,0-1.205,3.92,1.363,8.98c5.923,0,13.641,0.303,22.391,3.994
			c0.805-3.211-2.861-13.447-9.618-15.365C80.697,93.517,73.322,97.825,73.322,97.825z"/>
		<g>
			<defs>
				<path id="SVGID_2_" d="M73.322,97.825c0,0-1.205,3.92,1.363,8.98c5.479,0.146,13.641,0.303,22.391,3.994
					c0.805-3.211-2.861-13.447-9.618-15.365C80.697,93.517,73.322,97.825,73.322,97.825z"/>
			</defs>
			<clipPath id="SVGID_3_">
				<use xlink:href="#SVGID_2_"  overflow="visible"/>
			</clipPath>
			<linearGradient id="SVGID_4_" gradientUnits="userSpaceOnUse" x1="86.3184" y1="107.6484" x2="86.3184" y2="96.2864">
				<stop  offset="0" style="stop-color:#38B4BC"/>
				<stop  offset="0.1042" style="stop-color:#34A5AC"/>
				<stop  offset="0.343" style="stop-color:#2E8D93"/>
				<stop  offset="0.5762" style="stop-color:#2A7D82"/>
				<stop  offset="0.799" style="stop-color:#277479"/>
				<stop  offset="1" style="stop-color:#267176"/>
			</linearGradient>
			<circle clip-path="url(#SVGID_3_)" fill="url(#SVGID_4_)" cx="86.318" cy="102.817" r="7.617"/>
		</g>
		<path fill="#381E13" d="M74.071,88.385c0,0,9.763-8.865,25.203-4.601c0.209-3.428-3.276-5.578-3.276-5.578
			s-11.001-1.799-22.078,8.998C74.071,88.385,74.071,88.385,74.071,88.385z"/>
		<path fill="#381E13" d="M117.414,79.115l-3.029,4.837c0,0,14.68-4.561,24.089,4.521c0.943-1.532,0.943-1.532,0.943-1.532
			S134.398,76.329,117.414,79.115z"/>
		<path fill="#381E13" d="M71.867,99.302c0,0,0.34-0.473,1.061-1.147c0.714-0.683,1.802-1.589,3.262-2.462
			c0.731-0.429,1.554-0.856,2.469-1.23c0.911-0.377,1.916-0.699,2.999-0.934c1.081-0.221,2.26-0.363,3.456-0.315
			c0.473,0.001,1.22,0.089,1.836,0.177l0.92,0.186c0.304,0.078,0.604,0.179,0.907,0.27c1.203,0.396,2.345,1.006,3.329,1.76
			c0.982,0.76,1.812,1.646,2.461,2.582c1.307,1.871,1.976,3.829,2.314,5.496c0.327,1.678,0.382,3.075,0.344,4.05
			c-0.039,0.975-0.148,1.521-0.148,1.521s-0.166-0.531-0.502-1.417c-0.333-0.884-0.823-2.134-1.545-3.511
			c-0.712-1.377-1.656-2.893-2.892-4.167c-0.624-0.631-1.304-1.208-2.059-1.663c-0.749-0.464-1.563-0.811-2.415-1.053
			c-0.428-0.118-0.868-0.199-1.311-0.275c-0.447-0.042-0.76-0.105-1.35-0.104c-0.922-0.047-1.829,0.035-2.738,0.126
			c-0.907,0.106-1.801,0.242-2.657,0.411c-0.857,0.156-1.679,0.336-2.445,0.505c-1.569,0.358-2.876,0.657-3.792,0.866
			C72.436,99.195,71.867,99.302,71.867,99.302z"/>
		<path fill="#FFFFFF" d="M137.961,97.501c0,0,1.079,3.763-1.492,8.824c-5.229,0.02-13.744,0.012-22.499,3.702
			c-0.801-3.21,2.862-12.675,9.621-14.593C130.349,93.517,137.961,97.501,137.961,97.501z"/>
		<g>
			<defs>
				<path id="SVGID_5_" d="M137.961,97.501c0,0,1.079,3.763-1.492,8.824c-7.027-0.139-14.158,0.188-22.499,3.702
					c-0.801-3.21,2.862-12.675,9.621-14.593C130.349,93.517,137.961,97.501,137.961,97.501z"/>
			</defs>
			<clipPath id="SVGID_6_">
				<use xlink:href="#SVGID_5_"  overflow="visible"/>
			</clipPath>
			<linearGradient id="SVGID_7_" gradientUnits="userSpaceOnUse" x1="124.8916" y1="107.6484" x2="124.8916" y2="96.2864">
				<stop  offset="0" style="stop-color:#38B4BC"/>
				<stop  offset="0.1042" style="stop-color:#34A5AC"/>
				<stop  offset="0.343" style="stop-color:#2E8D93"/>
				<stop  offset="0.5762" style="stop-color:#2A7D82"/>
				<stop  offset="0.799" style="stop-color:#277479"/>
				<stop  offset="1" style="stop-color:#267176"/>
			</linearGradient>
			<circle clip-path="url(#SVGID_6_)" fill="url(#SVGID_7_)" cx="124.892" cy="102.817" r="7.618"/>
		</g>
		<path fill="#381E13" d="M139.417,98.974c0,0-0.565-0.077-1.496-0.256c-0.911-0.172-2.214-0.417-3.776-0.711
			c-0.765-0.145-1.583-0.296-2.439-0.436c-0.854-0.133-1.747-0.286-2.652-0.365c-0.891-0.109-1.859-0.157-2.699-0.152l-0.785,0.018
			l-0.621,0.059c-0.411,0.052-0.881,0.117-1.302,0.221c-0.862,0.195-1.688,0.496-2.452,0.899c-0.767,0.404-1.472,0.919-2.107,1.501
			c-1.273,1.172-2.254,2.612-2.997,3.936c-0.755,1.323-1.259,2.543-1.603,3.406c-0.346,0.866-0.515,1.389-0.515,1.389
			s-0.11-0.539-0.142-1.501c-0.029-0.962,0.033-2.345,0.406-3.997c0.385-1.639,1.109-3.57,2.516-5.354
			c0.697-0.889,1.569-1.725,2.588-2.406c1.015-0.686,2.171-1.204,3.361-1.531c0.598-0.188,1.183-0.278,1.814-0.367l0.951-0.098
			l0.785-0.022c0.659-0.009,1.184,0.044,1.766,0.086c0.554,0.085,1.109,0.149,1.633,0.271c1.058,0.218,2.031,0.547,2.936,0.886
			c0.895,0.361,1.714,0.748,2.441,1.154c0.726,0.41,1.373,0.807,1.916,1.213c0.548,0.396,1.014,0.752,1.376,1.082
			C139.057,98.528,139.417,98.974,139.417,98.974z"/>
		<path fill="#FBB891" d="M143.123,98.191c0,0,3.989-5.235,5.525-6.439c2.221,1.29,3.646,4.576,3.646,4.576
			s-1.646,27.618-9.172,22.72C141.164,109.575,143.123,98.191,143.123,98.191z"/>
		<path fill="#EC9766" d="M148.071,108.136c0.007-1.393,0.018-2.707-0.256-3.881c-0.128-0.584-0.331-1.111-0.612-1.55
			c-0.285-0.438-0.659-0.778-1.119-1.054l-0.656-0.392l0.256-0.633c0.393-0.971,0.867-1.944,1.703-2.768
			c0.211-0.204,0.457-0.385,0.742-0.527c0.281-0.144,0.625-0.23,0.957-0.189c0.683,0.077,1.106,0.573,1.29,1.049
			c-0.423-0.304-0.922-0.442-1.261-0.323c-0.333,0.115-0.588,0.406-0.81,0.775c-0.448,0.729-0.739,1.648-1.042,2.547l-0.399-1.023
			c0.727,0.352,1.375,0.945,1.789,1.659c0.403,0.718,0.593,1.505,0.616,2.253c0.019,0.752-0.084,1.475-0.291,2.155
			C148.771,106.913,148.49,107.563,148.071,108.136z"/>
		<path fill="#F7F8F8" d="M144.425,115.278c0,0-1.217,4.975,0.704,6.263c1.455-2.608,1.731-5.702,1.731-5.702L144.425,115.278z"/>
		<path fill="#DD8C5F" d="M86.602,133.359c0,0,0.098-2.07,0.977-2.755c0.883-0.686,2.514-0.17,2.514-0.17L86.602,133.359z"/>
		<polygon fill="#F7F8F8" points="86.797,179.489 91.971,168.831 104.114,173.251 98.354,184.138 		"/>
		<polygon fill="#F7F8F8" points="109.49,184.487 104.114,173.251 114.789,168.831 120.461,177.673 		"/>
		<path fill="#F9A574" d="M74.686,106.806c0,0,6.666,0.581,12.224,1.838c5.562,1.257,10.167,2.156,10.167,2.156
			s-6.253-2.508-10.246-3.713C82.837,105.883,74.686,106.806,74.686,106.806z"/>
		<path fill="#F9A574" d="M113.97,110.027c0,0,8.407-4.003,14.911-4.336c6.504-0.33,7.588,0.634,7.588,0.634
			s-6.784,0.48-9.778,0.963C123.703,107.771,113.97,110.027,113.97,110.027z"/>
		<path fill="#FFFFFF" d="M88.69,133.196c0,0,4.405,8.119,12.163,9.5c7.757,1.381,15.604-5.301,15.604-5.301
			s-8.001,1.517-14.6,0.459C95.26,136.798,88.69,133.196,88.69,133.196z"/>
		<g>
			<path fill="#FBB891" d="M62.668,98.191c0,0-5.008-5.235-6.936-6.439c-2.787,1.29-4.577,4.576-4.577,4.576
				s2.065,27.618,11.513,22.72C65.127,109.575,62.668,98.191,62.668,98.191z"/>
			<path fill="#EC9766" d="M56.455,108.136c-0.497-0.56-0.838-1.23-1.084-1.946c-0.244-0.72-0.354-1.505-0.289-2.327
				c0.051-0.408,0.146-0.822,0.299-1.227c0.144-0.407,0.381-0.788,0.654-1.131c0.553-0.693,1.309-1.168,2.066-1.463l-0.496,1.252
				c-0.209-0.486-0.402-0.976-0.645-1.425c-0.251-0.439-0.484-0.891-0.803-1.229c-0.301-0.361-0.646-0.619-1.087-0.729
				c-0.438-0.099-0.993-0.001-1.507,0.281c0.271-0.519,0.797-0.972,1.489-1.095c0.7-0.139,1.437,0.139,1.979,0.51
				c0.546,0.389,0.997,0.852,1.353,1.357c0.36,0.504,0.68,1.021,0.938,1.561l0.389,0.814l-0.885,0.438
				c-0.525,0.261-0.995,0.559-1.34,0.955c-0.186,0.189-0.329,0.409-0.467,0.645c-0.135,0.236-0.245,0.5-0.324,0.782
				C56.34,105.3,56.369,106.676,56.455,108.136z"/>
			<path fill="#F7F8F8" d="M61.032,115.278c0,0,1.525,4.975-0.884,6.263c-1.825-2.608-2.172-5.702-2.172-5.702L61.032,115.278z"/>
		</g>
		<path fill="#362013" d="M94.333,59.49c0,0-3.444,5.232-27.288,16.521c-1.804,5.93-2.875,46.69,3.259,55.792
			c5.497,8.156,19.71,16.941,15.576,21.578c-4.138,4.641-7.64,6.407-11.195,11.377c-1.552,2.172-14.598,15.109-14.598,15.109
			s-39.508-18.25-21.912-27.818c17.533-9.531,3.686-17.439-4.342-25.466c-2.063-2.062,7.992-59.287,9.795-63.408
			c11.342-12.115,39.31-27.652,62.088-33.68c11.344,2.063,60.034,40.588,59.845,57.555c-0.174,15.504-8.427,22.839-10.626,21.431
			c-13.771-8.802,38.946,30.561,2.897,64.77c-24.986,23.711-23.933-23.746-29.407-30.367c5.434-11.081,10.502-20.521,11.833-37.992
			c1.391-18.335-1.746-26.652-3.172-31.727L94.333,59.49z"/>
		<path fill="#59351D" d="M160.816,168.472c0.834-22.148-14.72-34.857-15.979-36.558c-0.258-1.194-0.518-2.388-0.777-3.585
			c-0.797-3.643-1.592-7.309-2.359-10.957c-4.422-21.148,1.543-24.045,6.811-26.598c2.93-1.418,5.697-2.762,6.09-6.984
			c1.014-10.911-45.922-45.541-51.117-49.334c1.186-2.777,0.714-1.874,1.474-3.417c-0.211-0.057,0.951-1.509,0.76-1.544
			c-0.26,0.068,0.26-0.078,0,0c-1.277,2.612-3.858,5.276-5.655,10.137l-0.119-0.447c-1.84,0.497-45.141,12.165-52.405,22.54
			c-7.06,10.089-4.832,56.971,3.138,66.008c4.086,4.633,5.972,9.756,5.312,14.429c-0.617,4.361-3.478,8.287-8.275,11.345
			c-2.553,1.625-3.818,3.615-3.758,5.91c0.096,3.848,10.911,11.316,14.42,14.078c0.195-0.377,0.74-1.531,0.74-1.531
			c-3.262-2.586-13.839-9.264-13.925-12.576c-0.045-1.859,0.997-3.441,3.187-4.84c5.113-3.258,8.167-7.48,8.838-12.216
			c0.707-5.031-1.284-10.509-5.612-15.418c-6.86-7.783-10.294-54.127-3.048-64.477c6.595-9.424,46.199-20.542,51.184-21.91
			c-0.321,0.895-0.635,1.808-0.936,2.732l-0.088-0.176c-1.849,0.912-45.344,22.394-49.113,36.649
			c-3.947,14.924,7.418,43.212,13.679,57.085c-0.085-1.121-0.164-2.35-0.233-3.666C56.73,118.59,47.267,93.388,50.799,80.049
			c0.321-1.226,0.985-2.521,1.901-3.858c0.986,4.936,4.562,21.488,9.862,31.514c0.007-0.876,0.011-1.753,0.021-2.623
			c-5.061-10.97-8.448-27.982-8.888-30.232c9.742-12.236,39.21-27.452,44.667-30.207c-1.421,4.629-1.882,7.552-2.018,8.385
			c0.006-0.006,0.012-0.018,0.012-0.018l1.175,0.498c0.223-1.399,0.505-2.824,0.858-4.262l46.136,21.041
			c7.295,7.527,9.027,11.4,8.842,13.393c-0.328,3.526-2.564,4.609-5.395,5.978c-5.395,2.616-12.109,5.87-7.484,27.97
			c0.77,3.65,1.566,7.318,2.361,10.965c4.826,22.154,10.667,38.429,6.444,51.082c0.369,0.197-0.396-0.107,0,0
			c3.928-11.703,0.481-24.768-3.776-44.613C149.954,141.737,162.609,149.603,160.816,168.472
			C160.733,159.268,160.422,169.304,160.816,168.472z M98.701,48.027c1.15-4.359,2.759-8.709,4.291-12.395
			c2.781,2.039,14.174,10.488,25.348,19.881c5.734,4.82,10.211,8.869,13.697,12.279L98.701,48.027z"/>
		<path fill="#F9AD80" d="M138.92,98.591c0,0,3.989-5.235,5.525-6.439c2.221,1.29,3.646,4.576,3.646,4.576
			s-1.646,27.618-9.172,22.72C136.961,109.975,138.92,98.591,138.92,98.591z"/>
		<path fill="#EC9766" d="M143.868,108.535c0.007-1.393,0.018-2.707-0.256-3.881c-0.128-0.584-0.331-1.111-0.612-1.55
			c-0.285-0.438-0.659-0.778-1.119-1.054l-0.656-0.392l0.256-0.633c0.393-0.971,0.867-1.944,1.703-2.768
			c0.211-0.204,0.457-0.385,0.742-0.527c0.281-0.144,0.625-0.23,0.957-0.189c0.683,0.077,1.106,0.573,1.29,1.049
			c-0.423-0.304-0.922-0.442-1.261-0.323c-0.333,0.115-0.588,0.406-0.81,0.775c-0.448,0.729-0.739,1.648-1.042,2.547l-0.399-1.023
			c0.727,0.352,1.375,0.945,1.789,1.659c0.403,0.718,0.593,1.505,0.616,2.253c0.019,0.752-0.084,1.475-0.291,2.155
			C144.567,107.312,144.287,107.963,143.868,108.535z"/>
		<path fill="#F6F7F8" d="M140.222,115.678c0,0-1.217,4.975,0.704,6.263c1.455-2.608,1.731-5.702,1.731-5.702L140.222,115.678z"/>
	</g>
</g>
<g id="Colin-circle">
	<circle fill="#FFFFFF" cx="102.118" cy="102.12" r="102.118"/>
	<g>
		<defs>
			<circle id="SVGID_8_" cx="102.118" cy="102.12" r="102.118"/>
		</defs>
		<clipPath id="SVGID_9_">
			<use xlink:href="#SVGID_8_"  overflow="visible"/>
		</clipPath>
		<g clip-path="url(#SVGID_9_)">
			<linearGradient id="SVGID_10_" gradientUnits="userSpaceOnUse" x1="103.9517" y1="195.4648" x2="103.4296" y2="166.2025">
				<stop  offset="0" style="stop-color:#F4BA89"/>
				<stop  offset="0.1991" style="stop-color:#F3B785"/>
				<stop  offset="0.4234" style="stop-color:#EEAD7A"/>
				<stop  offset="0.6598" style="stop-color:#E79D68"/>
				<stop  offset="0.9031" style="stop-color:#DF894F"/>
				<stop  offset="1" style="stop-color:#DB8044"/>
			</linearGradient>
			<rect x="95.227" y="157.876" fill="url(#SVGID_10_)" width="16.854" height="41.737"/>
			<path fill="#E88354" d="M77.257,100.377c1.045,6.407-1.036,12.087-4.654,12.677c-3.62,0.592-7.401-4.128-8.448-10.534
				c-1.047-6.409,1.037-12.085,4.656-12.672C72.427,89.253,76.207,93.97,77.257,100.377z"/>
			<path fill="#E88354" d="M142.864,102.53c-1.373,6.347-5.271,10.891-8.707,10.148c-3.438-0.744-5.113-6.488-3.742-12.837
				c1.375-6.349,5.27-10.892,8.707-10.149C142.562,90.435,144.235,96.187,142.864,102.53z"/>
			<path fill="#F4BA89" d="M135.87,102.23c0,37.874-22.906,68.585-31.856,68.585c-7.696,0-31.857-30.711-31.857-68.585
				c0-70.415,14.262-68.59,31.857-68.59c15.329,0,26.966,3.888,30.007,45.954C134.472,85.813,135.87,94.304,135.87,102.23z"/>
			<path fill="#E7A976" d="M77.367,95.566c0,0-0.395,0.096-0.891,0.053c-0.501-0.031-1.112-0.189-1.664-0.461
				c-0.55-0.285-1.042-0.679-1.367-1.062c-0.327-0.377-0.486-0.748-0.486-0.748s0.396-0.101,0.893-0.058
				c0.502,0.03,1.11,0.192,1.664,0.468c0.549,0.281,1.041,0.672,1.361,1.06C77.21,95.193,77.367,95.566,77.367,95.566z"/>
			<path fill="#E7A976" d="M128.737,94.85c0,0-0.031-0.331,0.066-0.683c0.086-0.35,0.297-0.729,0.592-1.012
				c0.303-0.283,0.689-0.467,1.051-0.531c0.352-0.074,0.684-0.023,0.684-0.023s0.029,0.332-0.068,0.68
				c-0.086,0.355-0.297,0.73-0.592,1.012c-0.305,0.282-0.691,0.468-1.051,0.53C129.065,94.898,128.737,94.85,128.737,94.85z"/>
			<path fill="#E7A976" d="M128.737,96.739c0,0,0.311-0.092,0.645-0.068c0.346,0.014,0.723,0.139,1.025,0.361
				c0.295,0.232,0.518,0.561,0.621,0.893c0.111,0.318,0.102,0.641,0.102,0.641s-0.311,0.096-0.646,0.074
				c-0.348-0.012-0.723-0.137-1.025-0.359c-0.297-0.234-0.514-0.57-0.619-0.896C128.728,97.063,128.737,96.739,128.737,96.739z"/>
			<linearGradient id="SVGID_11_" gradientUnits="userSpaceOnUse" x1="105.8779" y1="118.9561" x2="116.7214" y2="125.2271">
				<stop  offset="0" style="stop-color:#F4BA89"/>
				<stop  offset="1" style="stop-color:#F59D57"/>
			</linearGradient>
			<path fill="url(#SVGID_11_)" d="M113.321,131.231c0,0-9.537,1.566-13.063-1.828c3.659-10.714,8.36-22.732,8.36-22.732
				S117.239,124.702,113.321,131.231z"/>
			<path fill="#E0955F" d="M75.307,96.399c0,0,0.155,17.196,1.872,26.016c1.72,8.816,3.244,17.66,4.854,17.66
				c1.61,0,1.877-13.547,9.93-10.408c8.054,3.131,22.194,3.522,27.025,0c4.834-3.53,2.371,15.418,3.832,14.719
				c4.742-2.257,10.164-27.92,10.234-46.012c1.115-0.902,2.469-2.002,2.469-2.002c3.4,23.104-11.105,75.621-31.509,75.621
				c-21.237,0-34.65-56.441-31.547-78.696L75.307,96.399z"/>
			<path fill="#D98750" d="M108.59,132.814c-2.71,0-4.016-0.679-4.094-0.722l0.93-1.723c0.01,0,2.229,1.08,7.15,0.023
				c2.301-6.967-0.996-14.304-4.186-21.405c-2.27-5.052-4.411-9.819-4.411-14.215c0-4.584,0.981-7.794,2.916-9.544
				c1.591-1.438,3.21-1.314,3.388-1.299l-0.199,1.949l0.1-0.975l-0.082,0.975c-0.037,0.011-0.979-0.051-1.942,0.852
				c-1.011,0.945-2.219,3.112-2.219,8.042c0,3.976,2.056,8.558,4.237,13.409c3.267,7.275,6.97,15.522,4.064,23.387l-0.184,0.494
				l-0.511,0.119C111.551,132.655,109.906,132.814,108.59,132.814z"/>
			<polygon fill="#984321" points="131.173,65.782 132.854,107.782 136.101,107.341 133.962,62.385 			"/>
			<path fill="#984321" d="M72.174,109.031c0,0-0.496-51.085,0.461-61.273c0.954-10.19,15.248-33.152,33.17-28.478
				c15.987,4.173,19.933,20.154,26.489,25.602c6.918,5.744,10.361,1.041,10.361,1.041s0.375,21.428-15.375,23.515
				c-15.752,2.092-47.01-15.915-49.872-3.134c-2.266,10.103-1.69,42.094-1.69,42.094L72.174,109.031z"/>
			<path fill="#FFFFFF" d="M80.4,95.827c0,0,13.064-4.964,16.198-4.572c1.438,3.01,1.308,7.055,1.308,7.055L80.4,97.3V95.827z"/>
			<path fill="#FFFFFF" d="M112.146,98.31v-7.078c0,0,6.401-1.042,14.63,3.542c0,1.315,0,2.497,0,2.497
				S115.412,99.257,112.146,98.31z"/>
			<path fill="#984321" d="M73.293,84.075c0.13-0.393,7.187-3.269,7.187-3.269s12.933-0.565,19.595,1.634
				c-0.523,3.986-1.502,5.331-1.502,5.331L80.607,85.38l-6.663,2.483L73.293,84.075z"/>
			<path fill="#984321" d="M108.34,82.768l0.652,5.096c0,0,15.024-1.833,16.46-1.567c1.045,0.654,6.328,1.567,6.328,1.567
				l0.373-3.56c0,0-6.047-2.582-7.094-2.843C124.017,81.199,108.34,82.768,108.34,82.768z"/>
			<path fill="#452B19" d="M87.585,136.198c0,0,15.181,6.447,30.178,2.742c-2.611,6.664-10.957,9.744-15.675,9.016
				C93.66,146.646,87.585,136.198,87.585,136.198z"/>
			<path fill="#452B19" d="M87.194,137.83c0,0-0.636-1.167-0.091-2.062c0.606-1.012,1.787-0.742,1.787-0.742L87.194,137.83z"/>
			<path fill="#FFFFFF" d="M90.363,138.184c0,0,5.975,6.767,12.77,7.159c6.791,0.393,13.583-5.488,13.583-5.488
				s-6.202,2.274-13.128,1.445C97.168,140.534,90.363,138.184,90.363,138.184z"/>
			<path fill="none" stroke="#F26922" stroke-width="1.5311" stroke-miterlimit="10" d="M108.34,93.297"/>
			<path fill="#8C3E1E" d="M85.463,93.116c0,0-0.993,2.857-0.204,4.465c1.963,0.113,8.925,0.512,8.925,0.512s1.765-3.431,0-6.861
				C91.947,92.009,85.463,93.116,85.463,93.116z"/>
			<path fill="#8C3E1E" d="M113.836,91.134c0,0-1.689,3.156-0.299,7.432c2.1-0.016,5.87-0.25,7.579-0.473
				c1.709-0.217,0.514-5.607,0.514-5.607S116.539,91.011,113.836,91.134z"/>
			<path fill="#8C3E1E" d="M80.4,95.827c0,0,2.32-2.69,7.414-4.377c4.988-1.649,8.784-0.195,8.784-0.195s-4.189,0.459-8.272,1.586
				C84.71,93.837,81.197,95.488,80.4,95.827z"/>
			<path fill="#8C3E1E" d="M112.146,91.231c0,0,3.884-1.6,8.589-0.297c4.701,1.299,6.041,3.839,6.041,3.839l-6.531-2.442
				L112.146,91.231z"/>
			<path opacity="0.3" fill="#FFFFFF" d="M74.823,95.993c0,0,15.311,4.822,26.149,1.82c-0.925,7.218-2.393,10.658-4.648,11.805
				c-2.254,1.146-18.946-1.156-20.141-3.881C74.986,103.013,73.697,95.59,74.823,95.993z"/>
			<path opacity="0.3" fill="#FFFFFF" d="M111.015,96.765c0,0,1.569,9.973,3.476,10.659c1.905,0.687,16.657,1.13,18.526-1.96
				c1.867-3.092,2.494-10.55,2.494-10.55S122.405,100.178,111.015,96.765z"/>
			<path fill="#361C0D" d="M109.225,88.387c-6.586,3.269-7.203,0.521-13.025-0.527c-3.801-0.681-13.46-2.096-20.007-1.87
				c-3.492,0.122-6.395,1.878-6.395,1.878l-0.727,2.42l3.193-0.334c0,0,0.491,12.878,2.987,16.243
				c2.497,3.365,9.426,5.439,18.82,4.568c9.396-0.872,8.432-14.428,9.525-15.87c1.467-1.938,4.632-0.025,4.632-0.025
				s2.787,11.282,5.191,13.11c2.407,1.83,18.381,1.873,20.211-1.865c1.828-3.732,3.346-14.855,3.346-14.855l0.244-2.352v-4.184
				C137.22,84.724,115.809,85.12,109.225,88.387z M97.216,107.532c-4.026,2.445-17.007,2.093-20.378-2.999
				c-1.667-2.518-3.057-11.968-0.521-14.845c2.531-2.871,20.691,0.358,22.224,2.254C100.347,94.175,101.212,105.104,97.216,107.532z
				 M131.847,104.681c-2.506,3.525-15.261,3.625-17.444,1.859c-2.184-1.765-4.645-13.344-3.631-14.791
				c2.901-4.148,21.96-4.412,23.534-2.512C135.874,91.138,134.347,101.151,131.847,104.681z"/>
			<path fill="#7A3618" d="M137.47,59.53c-11.877,4.697-27.163-5.811-38.322-13.488c-5.229-3.591-9.975-4.252-14.104-1.957
				c-4.266,2.375-6.784,7.322-8.051,10.604c-0.617-1.571-1.191-3.106-1.714-4.544c0.821-2.567,7.997-23.426,23.099-19.916
				c5.564,1.295,10.107,5.868,14.503,10.291c4.965,4.994,9.643,9.702,15.303,9.047c2.102-0.246,4.229-1.293,6.398-3.082
				c-0.424-0.244-0.869-0.537-1.328-0.875c-1.787,1.379-3.525,2.194-5.227,2.397c-4.992,0.591-9.459-3.89-14.177-8.642
				c-4.535-4.566-9.23-9.281-15.176-10.671c-14.386-3.347-21.992,13.45-24.172,19.289c-0.484-1.382-0.896-2.579-1.215-3.532
				c-0.283,0.996-0.472,1.924-0.586,2.783c0.904,2.615,5.621,14.403,6.434,16.082c0.367-0.312,0.781-0.578,1.238-0.797
				c-0.879-1.822-1.752-3.803-2.577-5.821c0.948-2.847,3.579-9.283,8.593-11.567c3.489-1.582,7.523-0.836,11.996,2.239
				c9.4,6.462,21.657,14.889,32.696,14.889c2.359,0,4.666-0.385,6.875-1.257c0.514-0.203,1.016-0.445,1.514-0.699
				c0.393-0.789,0.744-1.598,1.047-2.402C139.548,58.562,138.528,59.108,137.47,59.53z"/>
			<path fill="#E7A976" d="M82.032,75.185c0,0,2.735-0.039,6.829,0.055c1.023,0.018,2.129,0.086,3.3,0.086
				c1.168,0.018,2.401,0.031,3.677,0.055c2.547,0.041,5.262,0.145,7.974,0.241c1.348,0.049,2.733,0.18,4.028,0.162
				c1.342-0.023,2.661-0.043,3.937-0.061c1.281-0.014,2.515-0.01,3.674-0.086c1.16-0.043,2.264-0.09,3.275-0.13
				c4.074-0.17,6.809-0.322,6.809-0.322s-0.662,0.168-1.838,0.401c-1.18,0.182-2.85,0.564-4.893,0.816
				c-2.035,0.238-4.437,0.618-6.985,0.702c-1.274,0.059-2.594,0.123-3.934,0.191c-1.387,0.033-2.724-0.072-4.099-0.105
				c-2.731-0.133-5.467-0.264-8.022-0.438c-1.277-0.094-2.513-0.18-3.684-0.263c-1.175-0.07-2.271-0.236-3.286-0.354
				C84.733,75.629,82.032,75.185,82.032,75.185z"/>
			<path fill="#E7A976" d="M82.032,66.76c0,0,2.436,0.467,6.089,1.171c1.817,0.348,3.941,0.75,6.216,1.181
				c2.277,0.396,4.697,0.86,7.133,1.208c2.428,0.404,4.865,0.71,7.152,0.947c1.147,0.136,2.253,0.191,3.305,0.277
				c1.053,0.099,2.044,0.078,2.964,0.117c0.925,0.047,1.759-0.015,2.509-0.031c0.754-0.01,1.406-0.052,1.934-0.149
				c1.078-0.132,1.695-0.207,1.695-0.207s-0.594,0.181-1.637,0.504c-0.521,0.177-1.17,0.313-1.924,0.431
				c-0.754,0.129-1.604,0.318-2.538,0.354c-0.939,0.061-1.958,0.186-3.031,0.15c-1.074,0-2.215,0.031-3.38-0.07
				c-2.345-0.107-4.826-0.396-7.291-0.773c-4.926-0.768-9.762-1.973-13.324-3.067c-1.787-0.534-3.249-1.071-4.275-1.425
				C82.606,67.006,82.032,66.76,82.032,66.76z"/>
			<linearGradient id="SVGID_12_" gradientUnits="userSpaceOnUse" x1="104.0327" y1="191.3242" x2="104.0327" y2="184.7546">
				<stop  offset="0" style="stop-color:#D6EEF0"/>
				<stop  offset="1" style="stop-color:#B5D8DB"/>
			</linearGradient>
			<path fill="url(#SVGID_12_)" d="M112.08,182.564H94.969l-16.033,19.989l0.355,1.055c14.685,4.479,30.461,8.079,46.366,9.614
				l3.473-9.886L112.08,182.564z"/>
			<linearGradient id="SVGID_13_" gradientUnits="userSpaceOnUse" x1="102.3945" y1="197.5791" x2="102.8167" y2="204.7541">
				<stop  offset="0" style="stop-color:#3C2C21"/>
				<stop  offset="1" style="stop-color:#201712"/>
			</linearGradient>
			<path fill="url(#SVGID_13_)" d="M108.868,191.774l-6.063-13.03l-7.578,12.835l4.836,5.881l-1.094,11.396
				c2.732,0.619,5.488,1.186,8.256,1.709l-2.413-14.085L108.868,191.774z"/>
			<polygon fill="#DFF2F5" points="95.227,174.925 89.456,189.438 95.692,192.147 102.805,178.744 			"/>
			<polygon fill="#DFF2F5" points="108.868,191.774 102.805,178.744 112.08,174.925 116.446,187.887 			"/>
		</g>
	</g>
</g>
</svg>
