<?xml version="1.0" encoding="utf-8"?>
<!-- Generator: Adobe Illustrator 16.0.0, SVG Export Plug-In . SVG Version: 6.00 Build 0)  -->
<!DOCTYPE svg PUBLIC "-//W3C//DTD SVG 1.1//EN" "http://www.w3.org/Graphics/SVG/1.1/DTD/svg11.dtd">
<svg version="1.1" id="Layer_1" xmlns="http://www.w3.org/2000/svg" xmlns:xlink="http://www.w3.org/1999/xlink" x="0px" y="0px"
	 width="79.46px" height="194.562px" viewBox="0 0 79.46 194.562" enable-background="new 0 0 79.46 194.562" xml:space="preserve">
<g>
	<linearGradient id="SVGID_1_" gradientUnits="userSpaceOnUse" x1="40.0674" y1="176.8047" x2="39.5453" y2="147.5416">
		<stop  offset="0" style="stop-color:#F4BA89"/>
		<stop  offset="0.1991" style="stop-color:#F3B785"/>
		<stop  offset="0.4234" style="stop-color:#EEAD7A"/>
		<stop  offset="0.6598" style="stop-color:#E79D68"/>
		<stop  offset="0.9031" style="stop-color:#DF894F"/>
		<stop  offset="1" style="stop-color:#DB8044"/>
	</linearGradient>
	<rect x="31.343" y="139.216" fill="url(#SVGID_1_)" width="16.854" height="41.737"/>
	<path fill="#E88354" d="M13.373,81.717c1.045,6.407-1.036,12.087-4.654,12.677c-3.62,0.592-7.401-4.128-8.448-10.534
		c-1.047-6.409,1.037-12.085,4.656-12.672C8.543,70.593,12.323,75.31,13.373,81.717z"/>

		<ellipse transform="matrix(0.9775 0.2111 -0.2111 0.9775 19.0598 -13.4986)" fill="#E88354" cx="72.757" cy="82.526" rx="6.368" ry="11.758"/>
	<path fill="#F4BA89" d="M71.987,83.57c0,37.874-22.907,68.585-31.857,68.585c-7.696,0-31.857-30.711-31.857-68.585
		c0-70.415,14.262-68.59,31.857-68.59c15.329,0,26.966,3.888,30.008,45.954C70.589,67.153,71.987,75.644,71.987,83.57z"/>
	<path fill="#E7A976" d="M13.483,76.906c0,0-0.395,0.096-0.891,0.053c-0.501-0.031-1.112-0.189-1.664-0.461
		c-0.55-0.285-1.042-0.679-1.367-1.062c-0.327-0.377-0.486-0.748-0.486-0.748s0.396-0.101,0.893-0.058
		c0.502,0.03,1.11,0.192,1.664,0.468c0.549,0.281,1.041,0.672,1.361,1.06C13.326,76.533,13.483,76.906,13.483,76.906z"/>
	<path fill="#E7A976" d="M64.854,76.189c0,0-0.031-0.331,0.066-0.683c0.086-0.35,0.297-0.729,0.591-1.012
		c0.304-0.283,0.69-0.467,1.051-0.531c0.353-0.074,0.684-0.023,0.684-0.023s0.03,0.332-0.067,0.68
		c-0.087,0.355-0.297,0.73-0.593,1.012c-0.304,0.282-0.691,0.468-1.051,0.53C65.183,76.238,64.854,76.189,64.854,76.189z"/>
	<path fill="#E7A976" d="M64.854,78.079c0,0,0.31-0.092,0.645-0.068c0.345,0.014,0.722,0.139,1.025,0.361
		c0.295,0.232,0.518,0.561,0.62,0.893c0.112,0.318,0.102,0.641,0.102,0.641s-0.31,0.096-0.646,0.074
		c-0.347-0.012-0.723-0.137-1.024-0.359c-0.298-0.234-0.515-0.57-0.619-0.896C64.844,78.403,64.854,78.079,64.854,78.079z"/>
	<linearGradient id="SVGID_2_" gradientUnits="userSpaceOnUse" x1="41.9932" y1="100.2949" x2="52.8366" y2="106.566">
		<stop  offset="0" style="stop-color:#F4BA89"/>
		<stop  offset="1" style="stop-color:#F59D57"/>
	</linearGradient>
	<path fill="url(#SVGID_2_)" d="M49.438,112.571c0,0-9.537,1.566-13.063-1.828c3.659-10.714,8.36-22.732,8.36-22.732
		S53.356,106.042,49.438,112.571z"/>
	<path fill="#E0955F" d="M11.423,77.739c0,0,0.155,17.196,1.872,26.016c1.72,8.816,3.244,17.66,4.854,17.66
		c1.61,0,1.877-13.547,9.93-10.408c8.054,3.131,22.194,3.522,27.026,0c4.834-3.53,2.371,15.418,3.832,14.719
		c4.741-2.257,10.164-27.92,10.234-46.012c1.114-0.902,2.469-2.002,2.469-2.002c3.399,23.104-11.105,75.621-31.51,75.621
		c-21.237,0-34.65-56.441-31.547-78.696L11.423,77.739z"/>
	<path fill="#D98750" d="M44.706,114.154c-2.71,0-4.016-0.679-4.094-0.722l0.93-1.723c0.01,0,2.229,1.08,7.15,0.023
		c2.301-6.967-0.996-14.304-4.186-21.405c-2.27-5.052-4.411-9.819-4.411-14.215c0-4.584,0.981-7.794,2.916-9.544
		c1.591-1.438,3.21-1.314,3.388-1.299L46.2,67.22l0.1-0.975l-0.082,0.975c-0.037,0.011-0.979-0.051-1.942,0.852
		c-1.011,0.945-2.219,3.112-2.219,8.042c0,3.976,2.056,8.558,4.237,13.409c3.267,7.275,6.971,15.522,4.064,23.387l-0.184,0.494
		l-0.511,0.119C47.667,113.995,46.022,114.154,44.706,114.154z"/>
	<polygon fill="#984321" points="67.29,47.122 68.971,89.122 72.218,88.681 70.079,43.725 	"/>
	<path fill="#984321" d="M8.29,90.371c0,0-0.496-51.085,0.461-61.273C9.705,18.907,23.999-4.055,41.921,0.62
		C57.909,4.793,61.854,20.774,68.41,26.222c6.919,5.744,10.362,1.041,10.362,1.041s0.375,21.428-15.375,23.515
		c-15.753,2.092-47.011-15.915-49.873-3.134c-2.266,10.103-1.69,42.094-1.69,42.094L8.29,90.371z"/>
	<path fill="#FFFFFF" d="M16.517,77.167c0,0,13.064-4.964,16.198-4.572c1.438,3.01,1.308,7.055,1.308,7.055l-17.506-1.01V77.167z"/>
	<path fill="#FFFFFF" d="M48.263,79.649v-7.078c0,0,6.401-1.042,14.63,3.542c0,1.315,0,2.497,0,2.497S51.528,80.597,48.263,79.649z"
		/>
	<path fill="#984321" d="M9.409,65.415c0.13-0.393,7.187-3.269,7.187-3.269s12.933-0.565,19.595,1.634
		c-0.523,3.986-1.502,5.331-1.502,5.331L16.724,66.72l-6.663,2.483L9.409,65.415z"/>
	<path fill="#984321" d="M44.456,64.107l0.652,5.096c0,0,15.025-1.833,16.461-1.567c1.045,0.654,6.327,1.567,6.327,1.567l0.373-3.56
		c0,0-6.046-2.582-7.094-2.843C60.134,62.539,44.456,64.107,44.456,64.107z"/>
	<path fill="#452B19" d="M23.701,117.538c0,0,15.181,6.447,30.178,2.742c-2.611,6.664-10.957,9.744-15.675,9.016
		C29.776,127.985,23.701,117.538,23.701,117.538z"/>
	<path fill="#452B19" d="M23.311,119.17c0,0-0.636-1.167-0.091-2.062c0.606-1.012,1.787-0.742,1.787-0.742L23.311,119.17z"/>
	<path fill="#FFFFFF" d="M26.479,119.523c0,0,5.975,6.767,12.77,7.159c6.791,0.393,13.584-5.488,13.584-5.488
		s-6.203,2.274-13.129,1.445C33.284,121.874,26.479,119.523,26.479,119.523z"/>
	<path fill="none" stroke="#F26922" stroke-width="1.5311" stroke-miterlimit="10" d="M44.456,74.637"/>
	<path fill="#8C3E1E" d="M21.579,74.456c0,0-0.993,2.857-0.204,4.465c1.963,0.113,8.925,0.512,8.925,0.512s1.765-3.431,0-6.861
		C28.063,73.349,21.579,74.456,21.579,74.456z"/>
	<path fill="#8C3E1E" d="M49.952,72.474c0,0-1.689,3.156-0.299,7.432c2.1-0.016,5.871-0.25,7.58-0.473
		c1.708-0.217,0.513-5.607,0.513-5.607S52.655,72.351,49.952,72.474z"/>
	<path fill="#8C3E1E" d="M16.517,77.167c0,0,2.32-2.69,7.414-4.377c4.988-1.649,8.784-0.195,8.784-0.195s-4.189,0.459-8.272,1.586
		C20.826,75.177,17.313,76.828,16.517,77.167z"/>
	<path fill="#8C3E1E" d="M48.263,72.571c0,0,3.884-1.6,8.59-0.297c4.701,1.299,6.04,3.839,6.04,3.839l-6.531-2.442L48.263,72.571z"
		/>
	<path opacity="0.3" fill="#FFFFFF" d="M10.939,77.333c0,0,15.311,4.822,26.149,1.82c-0.925,7.218-2.393,10.658-4.648,11.805
		c-2.254,1.146-18.946-1.156-20.141-3.881C11.103,84.353,9.813,76.93,10.939,77.333z"/>
	<path opacity="0.3" fill="#FFFFFF" d="M47.131,78.104c0,0,1.569,9.973,3.476,10.659c1.905,0.687,16.658,1.13,18.527-1.96
		c1.867-3.092,2.493-10.55,2.493-10.55S58.521,81.518,47.131,78.104z"/>
	<path fill="#361C0D" d="M45.341,69.727c-6.586,3.269-7.203,0.521-13.025-0.527c-3.801-0.681-13.46-2.096-20.007-1.87
		c-3.492,0.122-6.396,1.878-6.396,1.878l-0.727,2.42l3.193-0.334c0,0,0.491,12.878,2.987,16.243
		c2.497,3.365,9.426,5.439,18.82,4.568c9.396-0.872,8.432-14.428,9.525-15.87c1.467-1.938,4.632-0.025,4.632-0.025
		s2.787,11.282,5.191,13.11c2.407,1.83,18.382,1.873,20.211-1.865c1.829-3.732,3.346-14.855,3.346-14.855l0.245-2.352v-4.184
		C73.337,66.063,51.925,66.46,45.341,69.727z M33.332,88.872c-4.026,2.445-17.007,2.093-20.378-2.999
		c-1.667-2.518-3.057-11.968-0.521-14.845c2.531-2.871,20.691,0.358,22.224,2.254C36.463,75.515,37.328,86.444,33.332,88.872z
		 M67.963,86.021c-2.505,3.525-15.261,3.625-17.444,1.859c-2.184-1.765-4.645-13.344-3.631-14.791
		c2.901-4.148,21.961-4.412,23.535-2.512C71.991,72.478,70.463,82.491,67.963,86.021z"/>
	<path fill="#7A3618" d="M73.586,40.87C61.71,45.567,46.423,35.06,35.264,27.382c-5.229-3.591-9.975-4.252-14.104-1.957
		c-4.266,2.375-6.784,7.322-8.051,10.604c-0.617-1.571-1.191-3.106-1.714-4.544c0.821-2.567,7.997-23.426,23.099-19.916
		c5.564,1.295,10.107,5.868,14.503,10.291c4.966,4.994,9.644,9.702,15.304,9.047c2.101-0.246,4.228-1.293,6.397-3.082
		c-0.424-0.244-0.868-0.537-1.327-0.875c-1.787,1.379-3.526,2.194-5.227,2.397c-4.992,0.591-9.46-3.89-14.178-8.642
		c-4.535-4.566-9.23-9.281-15.176-10.671c-14.386-3.347-21.992,13.45-24.172,19.289c-0.484-1.382-0.896-2.579-1.215-3.532
		c-0.283,0.996-0.472,1.924-0.586,2.783c0.904,2.615,5.621,14.403,6.434,16.082c0.367-0.312,0.781-0.578,1.238-0.797
		c-0.879-1.822-1.752-3.803-2.577-5.821c0.948-2.847,3.579-9.283,8.593-11.567c3.489-1.582,7.523-0.836,11.996,2.239
		c9.4,6.462,21.658,14.889,32.697,14.889c2.359,0,4.666-0.385,6.875-1.257c0.514-0.203,1.016-0.445,1.513-0.699
		c0.394-0.789,0.745-1.598,1.048-2.402C75.664,39.901,74.645,40.448,73.586,40.87z"/>
	<path fill="#E7A976" d="M18.148,56.524c0,0,2.735-0.039,6.829,0.055c1.023,0.018,2.129,0.086,3.3,0.086
		c1.168,0.018,2.401,0.031,3.677,0.055c2.547,0.041,5.262,0.145,7.974,0.241c1.348,0.049,2.733,0.18,4.028,0.162
		c1.342-0.023,2.661-0.043,3.937-0.061c1.281-0.014,2.515-0.01,3.674-0.086c1.161-0.043,2.264-0.09,3.276-0.13
		c4.073-0.17,6.808-0.322,6.808-0.322s-0.662,0.168-1.838,0.401c-1.179,0.182-2.85,0.564-4.892,0.816
		c-2.035,0.238-4.438,0.618-6.986,0.702c-1.274,0.059-2.594,0.123-3.934,0.191c-1.387,0.033-2.724-0.072-4.099-0.105
		c-2.731-0.133-5.467-0.264-8.022-0.438c-1.277-0.094-2.513-0.18-3.684-0.263c-1.175-0.07-2.271-0.236-3.286-0.354
		C20.85,56.969,18.148,56.524,18.148,56.524z"/>
	<path fill="#E7A976" d="M18.148,48.1c0,0,2.436,0.467,6.089,1.171c1.817,0.348,3.941,0.75,6.216,1.181
		c2.277,0.396,4.697,0.86,7.133,1.208c2.428,0.404,4.865,0.71,7.152,0.947c1.147,0.136,2.253,0.191,3.305,0.277
		c1.053,0.099,2.044,0.078,2.964,0.117c0.925,0.047,1.76-0.015,2.51-0.031c0.754-0.01,1.406-0.052,1.934-0.149
		c1.078-0.132,1.694-0.207,1.694-0.207s-0.593,0.181-1.636,0.504c-0.521,0.177-1.171,0.313-1.924,0.431
		c-0.754,0.129-1.604,0.318-2.539,0.354c-0.939,0.061-1.958,0.186-3.031,0.15c-1.074,0-2.215,0.031-3.38-0.07
		c-2.345-0.107-4.826-0.396-7.291-0.773c-4.926-0.768-9.762-1.973-13.324-3.067c-1.787-0.534-3.249-1.071-4.275-1.425
		C18.723,48.346,18.148,48.1,18.148,48.1z"/>
	<linearGradient id="SVGID_3_" gradientUnits="userSpaceOnUse" x1="40.1489" y1="172.6641" x2="40.1489" y2="166.0944">
		<stop  offset="0" style="stop-color:#D6EEF0"/>
		<stop  offset="1" style="stop-color:#B5D8DB"/>
	</linearGradient>
	<path fill="url(#SVGID_3_)" d="M48.196,163.904H31.085l-16.033,19.989l0.355,1.055c14.685,4.48,30.461,8.08,46.367,9.614
		l3.472-9.886L48.196,163.904z"/>
	<linearGradient id="SVGID_4_" gradientUnits="userSpaceOnUse" x1="38.5112" y1="178.9199" x2="38.9334" y2="186.0951">
		<stop  offset="0" style="stop-color:#3C2C21"/>
		<stop  offset="1" style="stop-color:#201712"/>
	</linearGradient>
	<path fill="url(#SVGID_4_)" d="M44.984,173.114l-6.063-13.03l-7.578,12.835l4.836,5.881l-1.094,11.396
		c2.732,0.619,5.488,1.187,8.256,1.71l-2.413-14.086L44.984,173.114z"/>
	<polygon fill="#DFF2F5" points="31.343,156.265 25.572,170.777 31.809,173.487 38.921,160.084 	"/>
	<polygon fill="#DFF2F5" points="44.984,173.114 38.921,160.084 48.196,156.265 52.562,169.227 	"/>
</g>
</svg>
