<?xml version="1.0" encoding="utf-8"?>
<!-- Generator: Adobe Illustrator 16.0.0, SVG Export Plug-In . SVG Version: 6.00 Build 0)  -->
<!--<!DOCTYPE svg PUBLIC "-//W3C//DTD SVG 1.1//EN" "http://www.w3.org/Graphics/SVG/1.1/DTD/svg11.dtd">-->
<svg version="1.1" xmlns="http://www.w3.org/2000/svg" xmlns:xlink="http://www.w3.org/1999/xlink" x="0px" y="0px"
	 width="1283.55px" height="1074.916px" viewBox="0 0 1283.55 1074.916" enable-background="new 0 0 1283.55 1074.916"
	 xml:space="preserve">
<!--<g id="InfoBack">-->
<!--	<path fill="#FCC044" d="M107.549,1030.676C90.445,1028.166,0,1021.287,0,1021.287c0,21.375,5.413,38.238,10.506,53.629-->
<!--		c0,0,80.496-1.791,97.328-11.812C107.834,1063.104,107.67,1042.807,107.549,1030.676z"/>-->
<!--	<g>-->
<!--		<g>-->
<!--			<path fill="#7A4A1B" d="M136.208,1059.523c-0.964,0-1.58-0.723-1.444-1.605l2.193-15.657c0.135-0.91,0.99-1.605,1.9-1.605h4.523-->
<!--				c3.747,0,5.272,2.488,4.925,5.058c-0.294,2.088-1.794,3.239-3.693,4.042c1.604,0.615,3.399,1.632,3.024,4.282-->
<!--				c-0.429,3.077-3.159,5.486-7.013,5.486H136.208z M138.644,1051.119l-0.776,5.675h3.132c2.222,0,3.452-1.098,3.693-2.757-->
<!--				c0.268-1.874-1.017-2.918-2.891-2.918H138.644z M142.123,1048.363c1.337,0,2.97-0.83,3.238-2.623-->
<!--				c0.16-1.231-0.32-2.355-2.221-2.355h-3.399l-0.697,4.979H142.123z"/>-->
<!--			<path fill="#7A4A1B" d="M155.61,1059.791c-4.068,0-5.915-2.783-5.38-6.557l1.605-11.375c0.107-0.83,0.83-1.445,1.687-1.445-->
<!--				c0.776,0,1.365,0.643,1.259,1.445l-1.606,11.375c-0.321,2.248,0.535,3.8,2.837,3.8c2.275,0,3.559-1.579,3.881-3.8l1.605-11.375-->
<!--				c0.107-0.776,0.803-1.445,1.633-1.445c0.856,0,1.444,0.669,1.338,1.445l-1.605,11.375-->
<!--				C162.328,1057.034,159.571,1059.791,155.61,1059.791z"/>-->
<!--			<path fill="#7A4A1B" d="M172.711,1051.976c-2.302-1.204-6.396-1.364-6.396-5.433c0-3.721,2.676-6.129,6.637-6.129-->
<!--				c1.392,0,4.71,0.321,4.71,1.98c0,0.749-0.695,1.472-1.686,1.472c-0.938,0-1.473-0.723-3.238-0.723-->
<!--				c-1.687,0-3.346,0.67-3.346,2.918c0,1.15,0.643,1.605,1.07,1.847c2.329,1.284,6.397,1.392,6.397,5.406-->
<!--				c0,4.068-3.185,6.45-7.119,6.45c-1.793,0-5.032-0.562-5.032-2.114c0-0.75,0.75-1.499,1.579-1.499-->
<!--				c0.804,0,1.713,0.883,3.854,0.883c2.382,0,3.613-1.23,3.613-3.185C173.754,1052.698,173.166,1052.217,172.711,1051.976z"/>-->
<!--			<path fill="#7A4A1B" d="M181.328,1041.806c0.106-0.749,0.83-1.392,1.659-1.392c0.804,0,1.393,0.643,1.285,1.392l-2.328,16.594-->
<!--				c-0.107,0.723-0.883,1.392-1.687,1.392c-0.829,0-1.364-0.669-1.258-1.392L181.328,1041.806z"/>-->
<!--			<path fill="#7A4A1B" d="M195.432,1059.015l-5.219-12.552l-1.66,11.91c-0.107,0.749-0.911,1.418-1.713,1.418-->
<!--				c-0.831,0-1.338-0.669-1.23-1.418l2.301-16.46c0.134-0.856,0.857-1.499,1.767-1.499c0.588,0,1.15,0.321,1.365,0.803-->
<!--				c0.883,2.061,4.255,10.411,5.192,12.553l1.686-11.938c0.107-0.775,0.884-1.418,1.687-1.418s1.365,0.643,1.258,1.418l-2.329,16.46-->
<!--				c-0.107,0.804-0.856,1.499-1.793,1.499C196.181,1059.791,195.619,1059.47,195.432,1059.015z"/>-->
<!--			<path fill="#7A4A1B" d="M211.221,1059.523h-7.092c-1.097,0-2.035-0.375-1.874-1.579l2.222-15.71-->
<!--				c0.106-0.775,0.91-1.579,1.873-1.579h7.252c0.804,0,1.392,0.642,1.285,1.418c-0.106,0.776-0.855,1.338-1.658,1.338h-5.969-->
<!--				l-0.75,5.272h5.461c0.723,0,1.364,0.589,1.258,1.365c-0.107,0.776-0.857,1.392-1.66,1.392h-5.459l-0.75,5.354h6.236-->
<!--				c0.723,0,1.311,0.535,1.311,1.177C212.906,1058.827,212.104,1059.523,211.221,1059.523z"/>-->
<!--			<path fill="#7A4A1B" d="M223.021,1051.976c-2.303-1.204-6.396-1.364-6.396-5.433c0-3.721,2.676-6.129,6.636-6.129-->
<!--				c1.394,0,4.711,0.321,4.711,1.98c0,0.749-0.696,1.472-1.687,1.472c-0.937,0-1.472-0.723-3.238-0.723-->
<!--				c-1.687,0-3.345,0.67-3.345,2.918c0,1.15,0.642,1.605,1.07,1.847c2.328,1.284,6.396,1.392,6.396,5.406-->
<!--				c0,4.068-3.186,6.45-7.119,6.45c-1.793,0-5.033-0.562-5.033-2.114c0-0.75,0.75-1.499,1.58-1.499c0.803,0,1.712,0.883,3.854,0.883-->
<!--				c2.383,0,3.613-1.23,3.613-3.185C224.064,1052.698,223.477,1052.217,223.021,1051.976z"/>-->
<!--			<path fill="#7A4A1B" d="M236.429,1051.976c-2.302-1.204-6.396-1.364-6.396-5.433c0-3.721,2.676-6.129,6.638-6.129-->
<!--				c1.392,0,4.711,0.321,4.711,1.98c0,0.749-0.696,1.472-1.688,1.472c-0.936,0-1.471-0.723-3.238-0.723-->
<!--				c-1.686,0-3.345,0.67-3.345,2.918c0,1.15,0.642,1.605,1.07,1.847c2.329,1.284,6.396,1.392,6.396,5.406-->
<!--				c0,4.068-3.185,6.45-7.119,6.45c-1.793,0-5.033-0.562-5.033-2.114c0-0.75,0.751-1.499,1.581-1.499-->
<!--				c0.803,0,1.713,0.883,3.854,0.883c2.383,0,3.613-1.23,3.613-3.185C237.473,1052.698,236.884,1052.217,236.429,1051.976z"/>-->
<!--			<path fill="#7A4A1B" d="M256.285,1043.411h-3.238c-0.856,0-1.392-0.642-1.286-1.364c0.081-0.616,0.831-1.392,1.661-1.392h9.42-->
<!--				c0.75,0,1.419,0.615,1.313,1.392c-0.108,0.723-0.885,1.364-1.687,1.364h-3.238l-2.114,14.988-->
<!--				c-0.107,0.723-0.856,1.392-1.66,1.392c-0.829,0-1.391-0.669-1.284-1.392L256.285,1043.411z"/>-->
<!--			<path fill="#7A4A1B" d="M274.912,1059.791c-0.776,0-1.365-0.669-1.257-1.418l0.962-6.905h-6.504l-0.962,6.905-->
<!--				c-0.107,0.749-0.883,1.418-1.687,1.418c-0.829,0-1.364-0.669-1.258-1.418l2.329-16.567c0.106-0.749,0.829-1.392,1.658-1.392-->
<!--				c0.804,0,1.393,0.643,1.285,1.392l-0.962,6.905h6.502l0.964-6.905c0.107-0.749,0.883-1.392,1.659-1.392s1.392,0.643,1.283,1.392-->
<!--				l-2.327,16.567C276.49,1059.122,275.715,1059.791,274.912,1059.791z"/>-->
<!--			<path fill="#7A4A1B" d="M289.281,1059.523h-7.092c-1.098,0-2.034-0.375-1.873-1.579l2.221-15.71-->
<!--				c0.107-0.775,0.91-1.579,1.873-1.579h7.254c0.803,0,1.392,0.642,1.284,1.418c-0.106,0.776-0.856,1.338-1.659,1.338h-5.969-->
<!--				l-0.75,5.272h5.46c0.723,0,1.365,0.589,1.258,1.365c-0.107,0.776-0.856,1.392-1.659,1.392h-5.46l-0.75,5.354h6.236-->
<!--				c0.723,0,1.312,0.535,1.312,1.177C290.968,1058.827,290.165,1059.523,289.281,1059.523z"/>-->
<!--			<path fill="#7A4A1B" d="M309.407,1058.426c-0.107,0.723-0.856,1.365-1.633,1.365c-0.803,0-1.419-0.643-1.312-1.365l1.58-11.134-->
<!--				l-4.79,7.602c-0.349,0.562-0.91,0.829-1.5,0.829c-0.588,0-1.07-0.268-1.258-0.829l-2.623-7.602l-1.552,11.134-->
<!--				c-0.107,0.723-0.884,1.365-1.713,1.365c-0.803,0-1.338-0.643-1.231-1.365l2.329-16.566c0.106-0.83,0.83-1.445,1.713-1.445-->
<!--				c0.696,0,1.177,0.295,1.392,0.856l3.559,10.331l6.423-10.357c0.402-0.616,0.99-0.83,1.606-0.83c0.856,0,1.445,0.643,1.338,1.445-->
<!--				L309.407,1058.426z"/>-->
<!--			<path fill="#7A4A1B" d="M322.009,1059.523h-7.091c-1.098,0-2.034-0.375-1.874-1.579l2.221-15.71-->
<!--				c0.107-0.775,0.91-1.579,1.873-1.579h7.254c0.803,0,1.391,0.642,1.284,1.418s-0.856,1.338-1.659,1.338h-5.969l-0.749,5.272h5.46-->
<!--				c0.723,0,1.365,0.589,1.258,1.365s-0.856,1.392-1.659,1.392h-5.46l-0.75,5.354h6.236c0.723,0,1.312,0.535,1.312,1.177-->
<!--				C323.696,1058.827,322.894,1059.523,322.009,1059.523z"/>-->
<!--		</g>-->
<!--	</g>-->
<!--	<g>-->
<!--		<g>-->
<!--			<path fill="#7A4A1B" d="M364.975,1051.709c-2.195-1.231-6.184-1.365-6.184-5.354c0-3.613,2.489-5.968,6.209-5.968-->
<!--				c1.285,0,4.336,0.294,4.336,1.713c0,0.562-0.508,1.124-1.23,1.124c-0.83,0-1.418-0.75-3.238-0.75c-1.9,0-3.828,0.776-3.828,3.479-->
<!--				c0,1.392,0.722,1.9,1.231,2.194c2.222,1.258,6.21,1.393,6.21,5.354c0,3.907-2.998,6.289-6.719,6.289-->
<!--				c-1.658,0-4.656-0.509-4.656-1.873c0-0.562,0.535-1.151,1.124-1.151c0.749,0,1.766,0.937,3.854,0.937-->
<!--				c2.703,0,4.093-1.472,4.093-3.8C366.177,1052.564,365.509,1052.003,364.975,1051.709z"/>-->
<!--			<path fill="#7A4A1B" d="M370.94,1052.939l0.803-5.728c0.537-3.72,2.703-6.824,7.12-6.824c4.417,0,5.727,3.104,5.192,6.824-->
<!--				l-0.803,5.728c-0.535,3.801-3.024,6.852-7.119,6.852C372.037,1059.791,370.405,1056.74,370.94,1052.939z M373.885,1047.212-->
<!--				l-0.803,5.728c-0.403,2.811,0.588,4.764,3.346,4.764c2.756,0,4.281-1.953,4.684-4.764l0.803-5.728-->
<!--				c0.4-2.837-0.402-4.737-3.346-4.737C375.624,1042.475,374.286,1044.375,373.885,1047.212z"/>-->
<!--			<path fill="#7A4A1B" d="M400.459,1058.747c-0.08,0.562-0.642,1.044-1.203,1.044c-0.59,0-1.018-0.481-0.938-1.044l1.82-13.034-->
<!--				l-5.594,9.207c-0.267,0.429-0.668,0.643-1.124,0.643c-0.429,0-0.803-0.214-0.936-0.643l-3.024-9.207l-1.82,13.034-->
<!--				c-0.08,0.562-0.669,1.044-1.284,1.044c-0.563,0-0.938-0.481-0.857-1.044l2.409-17.235c0.107-0.643,0.643-1.124,1.284-1.124-->
<!--				c0.536,0,0.884,0.24,1.071,0.695l3.64,11.188l6.799-11.214c0.32-0.482,0.749-0.669,1.204-0.669c0.642,0,1.044,0.508,0.964,1.124-->
<!--				L400.459,1058.747z"/>-->
<!--			<path fill="#7A4A1B" d="M412.983,1059.523h-7.093c-0.883,0-1.633-0.294-1.498-1.258l2.301-16.353-->
<!--				c0.08-0.616,0.723-1.258,1.445-1.258h7.254c0.535,0,0.91,0.428,0.91,0.937c0,0.669-0.59,1.15-1.205,1.15h-6.369l-0.884,6.263-->
<!--				h5.861c0.481,0,0.909,0.401,0.909,0.938c0,0.642-0.562,1.15-1.204,1.15h-5.861l-0.91,6.343h6.637-->
<!--				c0.535,0,0.964,0.401,0.964,0.884C414.241,1058.961,413.625,1059.523,412.983,1059.523z"/>-->
<!--			<path fill="#7A4A1B" d="M428.022,1052.564l-0.856,6.103c-0.08,0.589-0.643,1.124-1.232,1.124c-0.561,0-0.989-0.509-0.908-1.124-->
<!--				l2.354-16.728c0.106-0.695,0.776-1.284,1.472-1.284h3.935c3.881,0,5.272,2.354,5.272,5.031c0,4.336-2.837,6.878-6.959,6.878-->
<!--				H428.022z M428.316,1050.478h3.078c2.944,0,4.497-1.553,4.497-4.577c0-1.633-0.723-3.158-3.399-3.158h-3.078L428.316,1050.478z"-->
<!--				/>-->
<!--			<path fill="#7A4A1B" d="M447.586,1059.523h-7.094c-0.882,0-1.631-0.294-1.498-1.258l2.302-16.353-->
<!--				c0.08-0.616,0.722-1.258,1.445-1.258h7.253c0.535,0,0.911,0.428,0.911,0.937c0,0.669-0.589,1.15-1.206,1.15h-6.37l-0.882,6.263-->
<!--				h5.861c0.48,0,0.908,0.401,0.908,0.938c0,0.642-0.561,1.15-1.203,1.15h-5.861l-0.91,6.343h6.638c0.535,0,0.964,0.401,0.964,0.884-->
<!--				C448.844,1058.961,448.228,1059.523,447.586,1059.523z"/>-->
<!--			<path fill="#7A4A1B" d="M451.679,1052.939l0.803-5.728c0.535-3.72,2.703-6.824,7.119-6.824s5.726,3.104,5.19,6.824l-0.802,5.728-->
<!--				c-0.535,3.801-3.023,6.852-7.119,6.852C452.776,1059.791,451.145,1056.74,451.679,1052.939z M454.623,1047.212l-0.803,5.728-->
<!--				c-0.401,2.811,0.589,4.764,3.346,4.764c2.756,0,4.282-1.953,4.684-4.764l0.803-5.728c0.401-2.837-0.401-4.737-3.346-4.737-->
<!--				C456.363,1042.475,455.025,1044.375,454.623,1047.212z"/>-->
<!--			<path fill="#7A4A1B" d="M469.102,1052.564l-0.856,6.103c-0.081,0.589-0.643,1.124-1.231,1.124c-0.562,0-0.99-0.509-0.91-1.124-->
<!--				l2.355-16.728c0.107-0.695,0.776-1.284,1.473-1.284h3.934c3.881,0,5.272,2.354,5.272,5.031c0,4.336-2.836,6.878-6.958,6.878-->
<!--				H469.102z M469.396,1050.478h3.078c2.944,0,4.496-1.553,4.496-4.577c0-1.633-0.721-3.158-3.399-3.158h-3.077L469.396,1050.478z"-->
<!--				/>-->
<!--			<path fill="#7A4A1B" d="M488.637,1059.523h-7.547c-0.643,0-1.123-0.535-1.043-1.204l2.381-16.86-->
<!--				c0.081-0.563,0.643-1.071,1.232-1.071c0.588,0,0.991,0.508,0.911,1.071l-2.25,16.004h6.611c0.482,0,0.884,0.401,0.884,0.91-->
<!--				C489.815,1059.015,489.254,1059.523,488.637,1059.523z"/>-->
<!--			<path fill="#7A4A1B" d="M500.655,1059.523h-7.094c-0.883,0-1.632-0.294-1.499-1.258l2.302-16.353-->
<!--				c0.08-0.616,0.723-1.258,1.445-1.258h7.252c0.536,0,0.911,0.428,0.911,0.937c0,0.669-0.589,1.15-1.205,1.15h-6.369l-0.883,6.263-->
<!--				h5.861c0.481,0,0.91,0.401,0.91,0.938c0,0.642-0.562,1.15-1.204,1.15h-5.861l-0.911,6.343h6.638c0.535,0,0.963,0.401,0.963,0.884-->
<!--				C501.912,1058.961,501.296,1059.523,500.655,1059.523z"/>-->
<!--			<path fill="#7A4A1B" d="M519.842,1051.709c-2.196-1.231-6.184-1.365-6.184-5.354c0-3.613,2.489-5.968,6.209-5.968-->
<!--				c1.285,0,4.336,0.294,4.336,1.713c0,0.562-0.507,1.124-1.23,1.124c-0.831,0-1.418-0.75-3.238-0.75-->
<!--				c-1.9,0-3.828,0.776-3.828,3.479c0,1.392,0.722,1.9,1.231,2.194c2.222,1.258,6.21,1.393,6.21,5.354-->
<!--				c0,3.907-2.998,6.289-6.719,6.289c-1.658,0-4.656-0.509-4.656-1.873c0-0.562,0.535-1.151,1.124-1.151-->
<!--				c0.749,0,1.766,0.937,3.854,0.937c2.704,0,4.093-1.472,4.093-3.8C521.044,1052.564,520.376,1052.003,519.842,1051.709z"/>-->
<!--			<path fill="#7A4A1B" d="M531.268,1042.742h-3.64c-0.562,0-0.937-0.428-0.937-0.937s0.589-1.15,1.23-1.15h9.422-->
<!--				c0.508,0,0.963,0.401,0.963,0.937c0,0.615-0.615,1.15-1.258,1.15h-3.64l-2.248,15.979c-0.082,0.562-0.643,1.07-1.232,1.07-->
<!--				c-0.588,0-0.99-0.509-0.91-1.07L531.268,1042.742z"/>-->
<!--			<path fill="#7A4A1B" d="M542.561,1058.667l0.937-6.558l-3.346-10.116c-0.026-0.107-0.054-0.268-0.054-0.401-->
<!--				c0-0.643,0.67-1.204,1.258-1.204c0.321,0,0.643,0.134,0.776,0.428l2.811,8.806l5.272-8.806c0.188-0.294,0.562-0.428,0.883-0.428-->
<!--				c0.509,0,0.964,0.454,0.964,0.99c0,0.214-0.106,0.454-0.188,0.615l-6.209,10.17l-0.91,6.504-->
<!--				c-0.081,0.589-0.643,1.124-1.258,1.124C542.881,1059.791,542.48,1059.282,542.561,1058.667z"/>-->
<!--			<path fill="#7A4A1B" d="M560.625,1059.523h-7.547c-0.643,0-1.125-0.535-1.045-1.204l2.383-16.86-->
<!--				c0.079-0.563,0.643-1.071,1.229-1.071c0.591,0,0.991,0.508,0.911,1.071l-2.248,16.004h6.611c0.481,0,0.883,0.401,0.883,0.91-->
<!--				C561.803,1059.015,561.24,1059.523,560.625,1059.523z"/>-->
<!--			<path fill="#7A4A1B" d="M572.641,1059.523h-7.092c-0.884,0-1.633-0.294-1.5-1.258l2.303-16.353-->
<!--				c0.08-0.616,0.723-1.258,1.444-1.258h7.253c0.535,0,0.91,0.428,0.91,0.937c0,0.669-0.588,1.15-1.204,1.15h-6.37l-0.883,6.263-->
<!--				h5.86c0.482,0,0.911,0.401,0.911,0.938c0,0.642-0.562,1.15-1.205,1.15h-5.861l-0.911,6.343h6.64c0.535,0,0.963,0.401,0.963,0.884-->
<!--				C573.898,1058.961,573.283,1059.523,572.641,1059.523z"/>-->
<!--		</g>-->
<!--	</g>-->
<!--	<g>-->
<!--		<g>-->
<!--			<path fill="#7A4A1B" d="M29.771,1052.244c-0.521-0.241-1.121-0.509-1.8-0.723c-2.218-0.75-4.618-1.579-4.618-4.791-->
<!--				c0-3.881,2.766-6.316,6.889-6.316c1.461,0,4.931,0.375,4.931,2.248c0,0.937-0.835,1.847-2.087,1.847-->
<!--				c-0.47,0-0.809-0.134-1.227-0.294c-0.47-0.161-1.018-0.401-1.932-0.401c-1.408,0-2.791,0.535-2.791,2.328-->
<!--				c0,0.964,0.521,1.312,0.887,1.499c0.627,0.348,1.227,0.535,1.774,0.723c2.244,0.749,4.645,1.632,4.645,4.79-->
<!--				c0,4.148-3.262,6.611-7.358,6.611c-1.852,0-5.244-0.669-5.244-2.409c0-0.91,0.939-1.847,1.957-1.847-->
<!--				c0.391,0,0.809,0.134,1.278,0.321c0.601,0.214,1.383,0.535,2.505,0.535c2.01,0,3.053-0.99,3.053-2.649-->
<!--				C30.633,1052.779,30.163,1052.431,29.771,1052.244z"/>-->
<!--			<path fill="#7A4A1B" d="M45.427,1059.523h-6.915c-1.277,0-2.374-0.455-2.165-1.9l2.062-15.068-->
<!--				c0.131-0.937,1.121-1.899,2.27-1.899h7.071c0.913,0,1.592,0.723,1.592,1.552c0,1.07-0.991,1.847-2.062,1.847h-5.428l-0.6,4.31-->
<!--				h4.932c0.861,0,1.592,0.642,1.592,1.525c0,1.017-0.966,1.873-2.062,1.873h-4.932l-0.601,4.363h5.689-->
<!--				c0.912,0,1.617,0.669,1.617,1.498C47.488,1058.641,46.496,1059.523,45.427,1059.523z"/>-->
<!--			<path fill="#7A4A1B" d="M55.55,1044.054h-2.766c-0.966,0-1.618-0.695-1.618-1.499c0-0.856,0.992-1.899,2.088-1.899h9.185-->
<!--				c0.86,0,1.618,0.669,1.618,1.552c0,0.99-1.044,1.847-2.088,1.847h-2.766l-1.932,13.998c-0.13,0.909-1.069,1.713-2.061,1.713-->
<!--				c-1.018,0-1.723-0.804-1.592-1.713L55.55,1044.054z"/>-->
<!--			<path fill="#7A4A1B" d="M81.25,1059.523h-8.584c-0.992,0-1.618-0.669-1.618-1.553c0-0.588,0.157-1.07,0.392-1.471-->
<!--				c1.357-2.356,3.522-4.069,5.609-5.782c1.723-1.418,4.201-3.024,4.201-5.191c0-1.178-0.704-2.088-2.14-2.088-->
<!--				c-0.887,0-1.591,0.16-2.243,0.428c-0.601,0.241-1.201,0.723-1.957,0.723c-0.836,0-1.566-0.562-1.566-1.445-->
<!--				c0-2.087,4.045-2.971,6.236-2.971c3.471,0,5.35,2.088,5.35,4.765c0,2.488-1.175,4.201-2.818,5.729-->
<!--				c-2.01,1.872-4.54,3.531-6.21,5.512h5.818c0.939,0,1.592,0.643,1.592,1.473C83.312,1058.667,82.372,1059.523,81.25,1059.523z"/>-->
<!--		</g>-->
<!--	</g>-->
<!--	<path fill="#7A4A1B" d="M341.6,1068.983c-0.69,0-1.25-0.56-1.25-1.25v-31.5c0-0.69,0.56-1.25,1.25-1.25s1.25,0.56,1.25,1.25v31.5-->
<!--		C342.85,1068.424,342.29,1068.983,341.6,1068.983z"/>-->
<!--	<g>-->
<!--		<g>-->
<!--			<path fill="#7A4A1B" d="M610.658,1058.988c-0.215,0.481-0.75,0.803-1.125,0.803c-0.562,0-0.99-0.375-0.99-0.937-->
<!--				c0-0.188,0.08-0.455,0.134-0.535l7.521-16.514c0.375-0.803,0.83-1.418,1.606-1.418c0.803,0,1.044,0.588,1.204,1.418l2.891,16.514-->
<!--				c0,0.026,0.026,0.134,0.026,0.214c0,0.776-0.589,1.258-1.284,1.258c-0.401,0-0.856-0.321-0.938-0.803l-0.615-3.721h-6.771-->
<!--				L610.658,1058.988z M613.254,1053.181h5.514l-1.5-9.073L613.254,1053.181z"/>-->
<!--			<path fill="#7A4A1B" d="M628.294,1056.071l6.611-14.881c0.214-0.481,0.75-0.803,1.15-0.803c0.589,0,0.99,0.374,0.99,0.937-->
<!--				c0,0.188-0.081,0.455-0.106,0.535l-7.549,16.514c-0.374,0.829-0.829,1.418-1.632,1.418c-0.776,0-1.044-0.615-1.178-1.418-->
<!--				l-2.917-16.514c0-0.027,0-0.134,0-0.214c0-0.776,0.616-1.258,1.285-1.258c0.374,0,0.829,0.321,0.909,0.803L628.294,1056.071z"/>-->
<!--			<path fill="#7A4A1B" d="M636.081,1058.988c-0.214,0.481-0.749,0.803-1.124,0.803c-0.563,0-0.99-0.375-0.99-0.937-->
<!--				c0-0.188,0.079-0.455,0.134-0.535l7.521-16.514c0.374-0.803,0.83-1.418,1.604-1.418c0.805,0,1.045,0.588,1.206,1.418-->
<!--				l2.891,16.514c0,0.026,0.026,0.134,0.026,0.214c0,0.776-0.589,1.258-1.284,1.258c-0.402,0-0.857-0.321-0.938-0.803l-0.615-3.721-->
<!--				h-6.771L636.081,1058.988z M638.677,1053.181h5.514l-1.499-9.073L638.677,1053.181z"/>-->
<!--			<path fill="#7A4A1B" d="M653.637,1042.742h-3.64c-0.562,0-0.937-0.428-0.937-0.937s0.589-1.15,1.23-1.15h9.421-->
<!--				c0.509,0,0.964,0.401,0.964,0.937c0,0.615-0.615,1.15-1.258,1.15h-3.64l-2.248,15.979c-0.081,0.562-0.643,1.07-1.231,1.07-->
<!--				s-0.99-0.509-0.91-1.07L653.637,1042.742z"/>-->
<!--			<path fill="#7A4A1B" d="M659.711,1058.988c-0.216,0.481-0.751,0.803-1.124,0.803c-0.562,0-0.99-0.375-0.99-0.937-->
<!--				c0-0.188,0.08-0.455,0.134-0.535l7.521-16.514c0.374-0.803,0.828-1.418,1.606-1.418c0.802,0,1.043,0.588,1.203,1.418-->
<!--				l2.891,16.514c0,0.026,0.026,0.134,0.026,0.214c0,0.776-0.588,1.258-1.284,1.258c-0.401,0-0.855-0.321-0.937-0.803l-0.615-3.721-->
<!--				h-6.771L659.711,1058.988z M662.307,1053.181h5.515l-1.5-9.073L662.307,1053.181z"/>-->
<!--			<path fill="#7A4A1B" d="M682.111,1051.093l3.291,7.039c0.055,0.106,0.055,0.294,0.055,0.455c0,0.695-0.857,1.178-1.312,1.178-->
<!--				c-0.375,0-0.669-0.188-0.803-0.509l-3.613-8.029h-3.078l-1.043,7.44c-0.08,0.589-0.67,1.124-1.258,1.124-->
<!--				c-0.562,0-0.964-0.509-0.883-1.124l2.354-16.728c0.106-0.695,0.75-1.284,1.419-1.284h4.655c3.882,0,5.14,2.221,5.14,4.55-->
<!--				C687.035,1048.47,685.082,1050.504,682.111,1051.093z M681.495,1042.742h-3.64l-0.909,6.424h3.8c2.649,0,4.121-1.312,4.121-3.693-->
<!--				C684.867,1044.107,684.172,1042.742,681.495,1042.742z"/>-->
<!--			<path fill="#7A4A1B" d="M695.893,1051.709c-2.194-1.231-6.182-1.365-6.182-5.354c0-3.613,2.488-5.968,6.209-5.968-->
<!--				c1.284,0,4.336,0.294,4.336,1.713c0,0.562-0.51,1.124-1.231,1.124c-0.83,0-1.419-0.75-3.239-0.75-->
<!--				c-1.899,0-3.826,0.776-3.826,3.479c0,1.392,0.723,1.9,1.23,2.194c2.222,1.258,6.209,1.393,6.209,5.354-->
<!--				c0,3.907-2.997,6.289-6.717,6.289c-1.66,0-4.657-0.509-4.657-1.873c0-0.562,0.535-1.151,1.124-1.151-->
<!--				c0.75,0,1.766,0.937,3.854,0.937c2.703,0,4.096-1.472,4.096-3.8C697.098,1052.564,696.428,1052.003,695.893,1051.709z"/>-->
<!--		</g>-->
<!--	</g>-->
<!--	<path fill="#7A4A1B" d="M593.6,1068.983c-0.69,0-1.25-0.56-1.25-1.25v-31.5c0-0.69,0.56-1.25,1.25-1.25s1.25,0.56,1.25,1.25v31.5-->
<!--		C594.85,1068.424,594.29,1068.983,593.6,1068.983z"/>-->
<!--	<rect x="971.973" y="1037.039" fill="#0C5C76" width="14.543" height="22.125"/>-->
<!--	<rect x="899.256" y="1037.039" fill="#BD2D2D" width="14.543" height="22.125"/>-->
<!--	<rect x="884.712" y="1037.039" fill="#E63549" width="14.544" height="22.125"/>-->
<!--	<rect x="913.799" y="1037.039" fill="#ED6F2B" width="14.543" height="22.125"/>-->
<!--	<rect x="928.342" y="1037.039" fill="#FFBB00" width="14.543" height="22.125"/>-->
<!--	<rect x="942.885" y="1037.039" fill="#BAB100" width="14.544" height="22.125"/>-->
<!--	<rect x="957.429" y="1037.039" fill="#39B4BD" width="14.544" height="22.125"/>-->
<!--	<rect x="986.516" y="1037.039" fill="#854A02" width="14.543" height="22.125"/>-->
<!--	<rect x="1029.827" y="1037.039" fill="#DBBE9E" width="14.544" height="22.125"/>-->
<!--	<rect x="1044.371" y="1037.039" fill="#525252" width="14.545" height="22.125"/>-->
<!--	<rect x="1015.285" y="1037.039" fill="#DBDBDB" width="14.542" height="22.125"/>-->
<!--	<rect x="1001.059" y="1037.039" fill="#3B2B20" width="14.543" height="22.125"/>-->
<!--</g>-->
<g id="Characters">
	<polygon fill="#120A05" points="1224.222,617.99 1146.429,615.614 1142.621,561.641 1227.549,561.641 	"/>
	<g>
		<defs>
			<circle id="SVGID_26_" cx="393.351" cy="868.516" r="102.118"/>
		</defs>
		<clipPath id="SVGID_27_">
			<use xlink:href="#SVGID_26_"  overflow="visible"/>
		</clipPath>
		<g clip-path="url(#SVGID_27_)">
			<linearGradient id="SVGID_28_" gradientUnits="userSpaceOnUse" x1="395.1841" y1="961.8604" x2="394.6621" y2="932.5986">
				<stop  offset="0" style="stop-color:#F5BA89"/>
				<stop  offset="0.2258" style="stop-color:#F3B684"/>
				<stop  offset="0.48" style="stop-color:#EEAB77"/>
				<stop  offset="0.7468" style="stop-color:#E69860"/>
				<stop  offset="1" style="stop-color:#DB8044"/>
			</linearGradient>
			<rect x="386.459" y="924.271" fill="url(#SVGID_28_)" width="16.854" height="41.737"/>
			<path fill="#E88354" d="M368.489,866.772c1.045,6.407-1.036,12.087-4.654,12.677c-3.62,0.592-7.401-4.128-8.448-10.534
				c-1.047-6.409,1.037-12.085,4.656-12.672C363.66,855.648,367.439,860.365,368.489,866.772z"/>
			<path fill="#E88354" d="M434.098,868.926c-1.373,6.347-5.272,10.891-8.708,10.148c-3.437-0.744-5.112-6.488-3.741-12.837
				c1.374-6.349,5.27-10.892,8.706-10.149C433.795,856.83,435.469,862.582,434.098,868.926z"/>
			<path fill="#F5BA89" d="M427.104,868.626c0,37.874-22.907,68.585-31.857,68.585c-7.696,0-31.857-30.711-31.857-68.585
				c0-70.415,14.262-68.59,31.857-68.59c15.329,0,26.966,3.888,30.008,45.954C425.705,852.209,427.104,860.699,427.104,868.626z"/>
			<path fill="#E6A875" d="M368.6,861.962c0,0-0.395,0.096-0.891,0.053c-0.501-0.031-1.112-0.189-1.664-0.461
				c-0.55-0.285-1.042-0.679-1.367-1.062c-0.327-0.377-0.486-0.748-0.486-0.748s0.396-0.101,0.893-0.058
				c0.502,0.03,1.11,0.192,1.664,0.468c0.549,0.281,1.041,0.672,1.361,1.06C368.442,861.589,368.6,861.962,368.6,861.962z"/>
			<path fill="#E6A875" d="M419.971,861.245c0,0-0.031-0.331,0.066-0.683c0.086-0.35,0.297-0.729,0.591-1.012
				c0.304-0.283,0.69-0.467,1.051-0.531c0.352-0.074,0.684-0.023,0.684-0.023s0.03,0.332-0.068,0.68
				c-0.086,0.355-0.297,0.73-0.593,1.012c-0.304,0.282-0.691,0.468-1.051,0.53C420.299,861.294,419.971,861.245,419.971,861.245z"/>
			<path fill="#E6A875" d="M419.971,863.135c0,0,0.309-0.092,0.645-0.068c0.345,0.014,0.721,0.139,1.025,0.361
				c0.295,0.232,0.518,0.561,0.621,0.893c0.112,0.318,0.102,0.641,0.102,0.641s-0.31,0.096-0.647,0.074
				c-0.347-0.012-0.723-0.137-1.024-0.359c-0.297-0.234-0.514-0.57-0.619-0.896C419.96,863.459,419.971,863.135,419.971,863.135z"/>
			<linearGradient id="SVGID_29_" gradientUnits="userSpaceOnUse" x1="397.1089" y1="885.3506" x2="407.9524" y2="891.6216">
				<stop  offset="0" style="stop-color:#F5BA89"/>
				<stop  offset="1" style="stop-color:#F59D56"/>
			</linearGradient>
			<path fill="url(#SVGID_29_)" d="M404.553,897.627c0,0-9.537,1.566-13.063-1.828c3.659-10.714,8.36-22.732,8.36-22.732
				S408.473,891.098,404.553,897.627z"/>
			<path fill="#E0955F" d="M366.539,862.795c0,0,0.155,17.196,1.872,26.016c1.72,8.816,3.244,17.66,4.854,17.66
				c1.61,0,1.877-13.547,9.93-10.408c8.054,3.131,22.194,3.522,27.026,0c4.834-3.53,2.371,15.418,3.832,14.719
				c4.741-2.257,10.164-27.92,10.234-46.012c1.114-0.902,2.469-2.002,2.469-2.002c3.399,23.104-11.105,75.621-31.51,75.621
				c-21.237,0-34.65-56.441-31.547-78.696L366.539,862.795z"/>
			<path fill="#D98750" d="M399.822,899.21c-2.709,0-4.016-0.679-4.094-0.722l0.93-1.723c0.01,0,2.229,1.08,7.15,0.023
				c2.301-6.967-0.996-14.304-4.186-21.405c-2.27-5.052-4.411-9.819-4.411-14.215c0-4.584,0.981-7.794,2.916-9.544
				c1.59-1.438,3.209-1.314,3.387-1.299l-0.199,1.949l0.1-0.975l-0.082,0.975c-0.037,0.011-0.98-0.051-1.942,0.852
				c-1.011,0.945-2.219,3.112-2.219,8.042c0,3.976,2.056,8.558,4.237,13.409c3.267,7.275,6.971,15.522,4.064,23.387l-0.184,0.494
				l-0.511,0.119C402.783,899.051,401.139,899.21,399.822,899.21z"/>
			<polygon fill="#994000" points="422.406,832.178 424.087,874.178 427.334,873.736 425.195,828.78 			"/>
			<path fill="#994000" d="M363.406,875.427c0,0-0.496-51.085,0.461-61.273c0.954-10.19,15.248-33.152,33.17-28.478
				c15.988,4.173,19.932,20.154,26.489,25.602c6.919,5.744,10.362,1.041,10.362,1.041s0.375,21.428-15.375,23.515
				c-15.752,2.092-47.011-15.915-49.873-3.134c-2.266,10.103-1.69,42.094-1.69,42.094L363.406,875.427z"/>
			<path fill="#FFFFFF" d="M371.633,862.223c0,0,13.064-4.964,16.198-4.572c1.438,3.01,1.308,7.055,1.308,7.055l-17.506-1.01
				V862.223z"/>
			<path fill="#FFFFFF" d="M403.379,864.705v-7.078c0,0,6.401-1.042,14.63,3.542c0,1.315,0,2.497,0,2.497
				S406.645,865.652,403.379,864.705z"/>
			<path fill="#994000" d="M364.525,850.471c0.13-0.393,7.187-3.269,7.187-3.269s12.933-0.565,19.595,1.634
				c-0.523,3.986-1.502,5.331-1.502,5.331l-17.965-2.392l-6.663,2.483L364.525,850.471z"/>
			<path fill="#994000" d="M399.572,849.163l0.652,5.096c0,0,15.025-1.833,16.461-1.567c1.045,0.654,6.327,1.567,6.327,1.567
				l0.373-3.56c0,0-6.045-2.582-7.093-2.843C415.25,847.595,399.572,849.163,399.572,849.163z"/>
			<path fill="#452A17" d="M378.817,902.594c0,0,15.181,6.447,30.178,2.742c-2.612,6.664-10.958,9.744-15.675,9.016
				C384.893,913.041,378.817,902.594,378.817,902.594z"/>
			<path fill="#452A17" d="M378.427,904.226c0,0-0.636-1.167-0.091-2.062c0.606-1.012,1.787-0.742,1.787-0.742L378.427,904.226z"/>
			<path fill="#FFFFFF" d="M381.596,904.579c0,0,5.975,6.767,12.77,7.159c6.791,0.393,13.584-5.488,13.584-5.488
				s-6.203,2.274-13.129,1.445C388.4,906.93,381.596,904.579,381.596,904.579z"/>
			<path fill="none" stroke="#FA6800" stroke-width="1.5311" stroke-miterlimit="10" d="M399.572,859.692"/>
			<path fill="#8C3B00" d="M376.695,859.512c0,0-0.993,2.857-0.204,4.465c1.963,0.113,8.925,0.512,8.925,0.512s1.765-3.431,0-6.861
				C383.179,858.404,376.695,859.512,376.695,859.512z"/>
			<path fill="#8C3B00" d="M405.068,857.529c0,0-1.689,3.156-0.299,7.432c2.1-0.016,5.871-0.25,7.58-0.473
				c1.708-0.217,0.513-5.607,0.513-5.607S407.771,857.406,405.068,857.529z"/>
			<path fill="#8C3B00" d="M371.633,862.223c0,0,2.32-2.69,7.414-4.377c4.988-1.649,8.784-0.195,8.784-0.195
				s-4.189,0.459-8.272,1.586C375.942,860.232,372.429,861.884,371.633,862.223z"/>
			<path fill="#8C3B00" d="M403.379,857.627c0,0,3.884-1.6,8.59-0.297c4.701,1.299,6.04,3.839,6.04,3.839l-6.531-2.442
				L403.379,857.627z"/>
			<path opacity="0.3" fill="#FFFFFF" d="M366.056,862.389c0,0,15.311,4.822,26.149,1.82c-0.925,7.218-2.393,10.658-4.648,11.805
				c-2.254,1.146-18.946-1.156-20.141-3.881C366.219,869.408,364.929,861.985,366.056,862.389z"/>
			<path opacity="0.3" fill="#FFFFFF" d="M402.247,863.16c0,0,1.569,9.973,3.476,10.659c1.906,0.687,16.658,1.13,18.527-1.96
				c1.867-3.092,2.494-10.55,2.494-10.55S413.637,866.573,402.247,863.16z"/>
			<path fill="#381800" d="M400.457,854.782c-6.586,3.269-7.203,0.521-13.025-0.527c-3.801-0.681-13.46-2.096-20.007-1.87
				c-3.492,0.122-6.396,1.878-6.396,1.878l-0.727,2.42l3.193-0.334c0,0,0.491,12.878,2.987,16.243
				c2.497,3.365,9.426,5.439,18.82,4.568c9.396-0.872,8.432-14.428,9.525-15.87c1.467-1.938,4.633-0.025,4.633-0.025
				s2.787,11.282,5.191,13.11c2.407,1.83,18.382,1.873,20.211-1.865c1.829-3.732,3.346-14.855,3.346-14.855l0.245-2.352v-4.184
				C428.453,851.119,407.041,851.516,400.457,854.782z M388.448,873.928c-4.026,2.445-17.007,2.093-20.378-2.999
				c-1.667-2.518-3.057-11.968-0.521-14.845c2.531-2.871,20.691,0.358,22.224,2.254C391.58,860.57,392.444,871.5,388.448,873.928z
				 M423.079,871.076c-2.505,3.525-15.261,3.625-17.444,1.859c-2.184-1.765-4.645-13.344-3.631-14.791
				c2.901-4.148,21.961-4.412,23.535-2.512C427.107,857.533,425.58,867.547,423.079,871.076z"/>
			<path fill="#7A3300" d="M428.702,825.926c-11.876,4.697-27.163-5.811-38.322-13.488c-5.229-3.591-9.975-4.252-14.104-1.957
				c-4.266,2.375-6.784,7.322-8.051,10.604c-0.617-1.571-1.191-3.106-1.714-4.544c0.821-2.567,7.997-23.426,23.099-19.916
				c5.564,1.295,10.107,5.868,14.503,10.291c4.965,4.994,9.643,9.702,15.303,9.047c2.101-0.246,4.228-1.293,6.397-3.082
				c-0.424-0.244-0.868-0.537-1.327-0.875c-1.787,1.379-3.526,2.194-5.227,2.397c-4.992,0.591-9.46-3.89-14.178-8.642
				c-4.535-4.566-9.23-9.281-15.176-10.671c-14.386-3.347-21.992,13.45-24.172,19.289c-0.484-1.382-0.896-2.579-1.215-3.532
				c-0.283,0.996-0.472,1.924-0.586,2.783c0.904,2.615,5.621,14.403,6.434,16.082c0.367-0.312,0.781-0.578,1.238-0.797
				c-0.879-1.822-1.752-3.803-2.577-5.821c0.948-2.847,3.579-9.283,8.593-11.567c3.489-1.582,7.523-0.836,11.996,2.239
				c9.4,6.462,21.658,14.889,32.697,14.889c2.359,0,4.666-0.385,6.875-1.257c0.514-0.203,1.016-0.445,1.513-0.699
				c0.394-0.789,0.745-1.598,1.048-2.402C430.78,824.957,429.761,825.504,428.702,825.926z"/>
			<path fill="#E6A875" d="M373.265,841.58c0,0,2.735-0.039,6.829,0.055c1.023,0.018,2.129,0.086,3.3,0.086
				c1.168,0.018,2.401,0.031,3.677,0.055c2.547,0.041,5.262,0.145,7.974,0.241c1.348,0.049,2.733,0.18,4.028,0.162
				c1.342-0.023,2.661-0.043,3.937-0.061c1.281-0.014,2.515-0.01,3.674-0.086c1.161-0.043,2.264-0.09,3.276-0.13
				c4.073-0.17,6.808-0.322,6.808-0.322s-0.663,0.168-1.837,0.401c-1.179,0.182-2.85,0.564-4.892,0.816
				c-2.035,0.238-4.438,0.618-6.986,0.702c-1.274,0.059-2.594,0.123-3.934,0.191c-1.387,0.033-2.723-0.072-4.099-0.105
				c-2.731-0.133-5.467-0.264-8.022-0.438c-1.277-0.094-2.513-0.18-3.684-0.263c-1.175-0.07-2.271-0.236-3.286-0.354
				C375.966,842.024,373.265,841.58,373.265,841.58z"/>
			<path fill="#E6A875" d="M373.265,833.155c0,0,2.436,0.467,6.089,1.171c1.817,0.348,3.941,0.75,6.216,1.181
				c2.277,0.396,4.697,0.86,7.133,1.208c2.428,0.404,4.865,0.71,7.152,0.947c1.148,0.136,2.253,0.191,3.306,0.277
				c1.052,0.099,2.043,0.078,2.963,0.117c0.925,0.047,1.76-0.015,2.51-0.031c0.754-0.01,1.406-0.052,1.934-0.149
				c1.078-0.132,1.695-0.207,1.695-0.207s-0.593,0.181-1.636,0.504c-0.521,0.177-1.171,0.313-1.924,0.431
				c-0.754,0.129-1.604,0.318-2.539,0.354c-0.939,0.061-1.958,0.186-3.031,0.15c-1.074,0-2.215,0.031-3.38-0.07
				c-2.345-0.107-4.826-0.396-7.291-0.773c-4.926-0.768-9.762-1.973-13.324-3.067c-1.787-0.534-3.249-1.071-4.275-1.425
				C373.839,833.401,373.265,833.155,373.265,833.155z"/>
			<linearGradient id="SVGID_30_" gradientUnits="userSpaceOnUse" x1="395.2651" y1="957.7197" x2="395.2651" y2="951.1501">
				<stop  offset="0" style="stop-color:#D6EEF0"/>
				<stop  offset="1" style="stop-color:#B4D8DB"/>
			</linearGradient>
			<path fill="url(#SVGID_30_)" d="M403.312,948.96h-17.111l-16.033,19.989l0.355,1.055c14.685,4.48,30.461,8.08,46.367,9.614
				l3.472-9.886L403.312,948.96z"/>
			<linearGradient id="SVGID_31_" gradientUnits="userSpaceOnUse" x1="393.6274" y1="963.9756" x2="394.0496" y2="971.1503">
				<stop  offset="0" style="stop-color:#3B2B20"/>
				<stop  offset="1" style="stop-color:#1F1611"/>
			</linearGradient>
			<path fill="url(#SVGID_31_)" d="M400.101,958.17l-6.063-13.03l-7.578,12.835l4.836,5.881l-1.094,11.396
				c2.732,0.619,5.488,1.187,8.256,1.71l-2.413-14.086L400.101,958.17z"/>
			<polygon fill="#DDF5F7" points="386.459,941.32 380.688,955.833 386.925,958.543 394.037,945.14 			"/>
			<polygon fill="#DDF5F7" points="400.101,958.17 394.037,945.14 403.312,941.32 407.679,954.282 			"/>
		</g>
	</g>

	<g>
		<defs>
			<circle id="SVGID_117_" cx="1181.432" cy="534.276" r="102.118"/>
		</defs>
		<clipPath id="SVGID_118_">
			<use xlink:href="#SVGID_117_"  overflow="visible"/>
		</clipPath>
		<g clip-path="url(#SVGID_118_)">
			<path fill="#29150C" d="M1182.419,503.295c0,9.936-11.299,17.989-25.232,17.989c-13.936,0-25.234-8.054-25.234-17.989
				c0-0.813-7.318-17.991,25.234-17.991C1171.12,485.304,1182.419,493.358,1182.419,503.295z"/>
			<linearGradient id="SVGID_119_" gradientUnits="userSpaceOnUse" x1="1182.416" y1="619.1748" x2="1181.5891" y2="590.235">
				<stop  offset="0" style="stop-color:#FFB991"/>
				<stop  offset="0.2823" style="stop-color:#F6AC82"/>
				<stop  offset="0.6403" style="stop-color:#EFA176"/>
				<stop  offset="1" style="stop-color:#ED9E72"/>
			</linearGradient>
			<rect x="1170.356" y="574.287" fill="url(#SVGID_119_)" width="22.818" height="44.21"/>
			<path fill="#828282" d="M1142.145,637.837c0,0,1.171-20.858,16.827-19.34c15.655,1.516,49.797-2.904,55.096,1.502
				c5.301,4.408,5.662,18.32,5.662,18.32s-25.983,6.744-40.721,6.744C1164.271,645.063,1142.145,637.837,1142.145,637.837z"/>
			<polygon fill="#DBDBDB" points="1170.356,617.483 1174.691,644.882 1187.873,644.481 1194.762,617.982 1182.5,614.075 			"/>
			<path fill="#FFB991" d="M1182.5,476.628c37.494,0,43.923,51.052,43.923,68.814c0,17.766-33.723,54.029-43.923,54.029
				s-43.921-29.489-43.921-50.941C1138.579,527.076,1142.915,476.628,1182.5,476.628z"/>
			<path fill="#FFAE80" d="M1220.15,559.233c0,3.184-15.639,5.763-34.936,5.763c-19.292,0-34.933-2.579-34.933-5.763
				c0-3.186,15.641-5.766,34.933-5.766C1204.512,553.468,1220.15,556.048,1220.15,559.233z"/>
			<path fill="#29150C" d="M1151.138,507.024c4.407-5.797,12.449-10.902,31.156-10.902c15.02,0,51.665,42.278,33.64,14.035
				c-10.628-16.664,10.908,36.872,8.189,35.892c9.745-15.35,8.978-17.977,8.978-17.977c1.249-1.527,24.84,14.68-4.588-29.573
				c-12.278-30.508-39.794-32.569-39.794-32.569c3.789-0.047-57.998,17.669-51,24.667c0.188,0.188,13.601-14.601-2.539,12.902
				c0.324,14.32-3.339,15.801-3.4,29.063c2.892,17.014,6.594,20.047,6.594,20.047s5.058,0.43,6.021-12.561
				C1145.242,528.627,1146.562,513.048,1151.138,507.024z"/>
			<path fill="#DE8D60" d="M1187.753,575.21l-0.552-1.846c0.025-0.008,2.703-0.823,5.054-2.487c2.624-1.858,3.765-3.973,3.399-6.294
				l-9.224,1.464l-0.35-0.449c-0.233-0.301-2.268-3.312-1.742-16.382c0.655-16.308,9.664-26.494,10.048-26.92l1.433,1.289
				c-0.09,0.099-8.929,10.123-9.555,25.709c-0.385,9.563,0.646,13.408,1.126,14.649l9.679-1.535l0.243,0.805
				c0.59,1.961,0.414,3.839-0.524,5.582C1194.429,573.174,1188.023,575.129,1187.753,575.21z"/>
			<path fill="#FFFFFF" d="M1151.708,538.649c0,0-1.205,3.92,1.363,8.98c5.923,0,13.641,0.303,22.391,3.994
				c0.805-3.211-2.861-13.447-9.618-15.365C1159.083,534.341,1151.708,538.649,1151.708,538.649z"/>
			<g>
				<defs>
					<path id="SVGID_120_" d="M1151.708,538.649c0,0-1.205,3.92,1.363,8.98c5.479,0.146,13.641,0.303,22.391,3.994
						c0.805-3.211-2.861-13.447-9.618-15.365C1159.083,534.341,1151.708,538.649,1151.708,538.649z"/>
				</defs>
				<clipPath id="SVGID_121_">
					<use xlink:href="#SVGID_120_"  overflow="visible"/>
				</clipPath>
				<linearGradient id="SVGID_122_" gradientUnits="userSpaceOnUse" x1="1164.7041" y1="548.4727" x2="1164.7041" y2="537.1106">
					<stop  offset="0" style="stop-color:#39B4BD"/>
					<stop  offset="0.0092" style="stop-color:#39B3BC"/>
					<stop  offset="0.2735" style="stop-color:#2F969D"/>
					<stop  offset="0.5313" style="stop-color:#288187"/>
					<stop  offset="0.7776" style="stop-color:#24747A"/>
					<stop  offset="1" style="stop-color:#237075"/>
				</linearGradient>
				<circle clip-path="url(#SVGID_121_)" fill="url(#SVGID_122_)" cx="1164.704" cy="543.642" r="7.617"/>
			</g>
			<path fill="#381D11" d="M1152.457,529.209c0,0,9.763-8.865,25.203-4.601c0.209-3.428-3.276-5.578-3.276-5.578
				s-11.001-1.799-22.078,8.998C1152.457,529.209,1152.457,529.209,1152.457,529.209z"/>
			<path fill="#381D11" d="M1195.8,519.939l-3.029,4.837c0,0,14.68-4.561,24.089,4.521c0.943-1.532,0.943-1.532,0.943-1.532
				S1212.784,517.153,1195.8,519.939z"/>
			<path fill="#381D11" d="M1150.253,540.126c0,0,0.34-0.473,1.061-1.147c0.714-0.683,1.802-1.589,3.262-2.462
				c0.731-0.429,1.554-0.856,2.469-1.23c0.911-0.377,1.916-0.699,2.999-0.934c1.081-0.221,2.26-0.363,3.456-0.315
				c0.473,0.001,1.22,0.089,1.836,0.177l0.92,0.186c0.304,0.078,0.604,0.179,0.907,0.27c1.203,0.396,2.345,1.006,3.329,1.76
				c0.982,0.76,1.812,1.646,2.461,2.582c1.307,1.871,1.976,3.829,2.314,5.496c0.327,1.678,0.382,3.075,0.344,4.05
				c-0.039,0.975-0.148,1.521-0.148,1.521s-0.166-0.531-0.502-1.417c-0.333-0.884-0.823-2.134-1.545-3.511
				c-0.712-1.377-1.656-2.893-2.892-4.167c-0.624-0.631-1.304-1.208-2.059-1.663c-0.749-0.464-1.563-0.811-2.415-1.053
				c-0.428-0.118-0.868-0.199-1.311-0.275c-0.447-0.042-0.76-0.105-1.35-0.104c-0.922-0.047-1.829,0.035-2.738,0.126
				c-0.907,0.106-1.801,0.242-2.657,0.411c-0.857,0.156-1.679,0.336-2.445,0.505c-1.569,0.358-2.876,0.657-3.792,0.866
				C1150.821,540.02,1150.253,540.126,1150.253,540.126z"/>
			<path fill="#FFFFFF" d="M1216.347,538.325c0,0,1.079,3.763-1.492,8.824c-5.229,0.02-13.744,0.012-22.499,3.702
				c-0.801-3.21,2.862-12.675,9.621-14.593C1208.734,534.341,1216.347,538.325,1216.347,538.325z"/>
			<g>
				<defs>
					<path id="SVGID_123_" d="M1216.347,538.325c0,0,1.079,3.763-1.492,8.824c-7.027-0.139-14.158,0.188-22.499,3.702
						c-0.801-3.21,2.862-12.675,9.621-14.593C1208.734,534.341,1216.347,538.325,1216.347,538.325z"/>
				</defs>
				<clipPath id="SVGID_124_">
					<use xlink:href="#SVGID_123_"  overflow="visible"/>
				</clipPath>
				<linearGradient id="SVGID_125_" gradientUnits="userSpaceOnUse" x1="1203.2773" y1="548.4727" x2="1203.2773" y2="537.1106">
					<stop  offset="0" style="stop-color:#39B4BD"/>
					<stop  offset="0.0092" style="stop-color:#39B3BC"/>
					<stop  offset="0.2735" style="stop-color:#2F969D"/>
					<stop  offset="0.5313" style="stop-color:#288187"/>
					<stop  offset="0.7776" style="stop-color:#24747A"/>
					<stop  offset="1" style="stop-color:#237075"/>
				</linearGradient>
				<circle clip-path="url(#SVGID_124_)" fill="url(#SVGID_125_)" cx="1203.277" cy="543.642" r="7.618"/>
			</g>
			<path fill="#381D11" d="M1217.803,539.798c0,0-0.565-0.077-1.496-0.256c-0.911-0.172-2.214-0.417-3.776-0.711
				c-0.765-0.145-1.583-0.296-2.439-0.436c-0.854-0.133-1.747-0.286-2.652-0.365c-0.891-0.109-1.859-0.157-2.699-0.152l-0.785,0.018
				l-0.621,0.059c-0.411,0.052-0.881,0.117-1.302,0.221c-0.862,0.195-1.688,0.496-2.452,0.899c-0.767,0.404-1.472,0.919-2.107,1.501
				c-1.273,1.172-2.254,2.612-2.997,3.936c-0.755,1.323-1.259,2.543-1.603,3.406c-0.346,0.866-0.515,1.389-0.515,1.389
				s-0.11-0.539-0.142-1.501c-0.029-0.962,0.033-2.345,0.406-3.997c0.385-1.639,1.109-3.57,2.516-5.354
				c0.697-0.889,1.569-1.725,2.588-2.406c1.015-0.686,2.171-1.204,3.361-1.531c0.598-0.188,1.183-0.278,1.814-0.367l0.951-0.098
				l0.785-0.022c0.659-0.009,1.184,0.044,1.766,0.086c0.554,0.085,1.109,0.149,1.633,0.271c1.058,0.218,2.031,0.547,2.936,0.886
				c0.895,0.361,1.714,0.748,2.441,1.154c0.726,0.41,1.373,0.807,1.916,1.213c0.548,0.396,1.014,0.752,1.376,1.082
				C1217.442,539.353,1217.803,539.798,1217.803,539.798z"/>
			<path fill="#FFB991" d="M1221.509,539.016c0,0,3.989-5.235,5.525-6.439c2.221,1.29,3.646,4.576,3.646,4.576
				s-1.646,27.618-9.172,22.72C1219.55,550.399,1221.509,539.016,1221.509,539.016z"/>
			<path fill="#EB9665" d="M1226.457,548.96c0.007-1.393,0.018-2.707-0.256-3.881c-0.128-0.584-0.331-1.111-0.612-1.55
				c-0.285-0.438-0.659-0.778-1.119-1.054l-0.656-0.392l0.256-0.633c0.393-0.971,0.867-1.944,1.703-2.768
				c0.211-0.204,0.457-0.385,0.742-0.527c0.281-0.144,0.625-0.23,0.957-0.189c0.683,0.077,1.106,0.573,1.29,1.049
				c-0.423-0.304-0.922-0.442-1.261-0.323c-0.333,0.115-0.588,0.406-0.81,0.775c-0.448,0.729-0.739,1.648-1.042,2.547l-0.399-1.023
				c0.727,0.352,1.375,0.945,1.789,1.659c0.403,0.718,0.593,1.505,0.616,2.253c0.019,0.752-0.084,1.475-0.291,2.155
				C1227.156,547.737,1226.876,548.388,1226.457,548.96z"/>
			<path fill="#F7F7F7" d="M1222.811,556.103c0,0-1.217,4.975,0.704,6.263c1.455-2.608,1.731-5.702,1.731-5.702L1222.811,556.103z"
				/>
			<path fill="#FFB991" d="M1141.054,539.016c0,0-5.008-5.235-6.936-6.439c-2.787,1.29-4.577,4.576-4.577,4.576
				s2.065,27.618,11.513,22.72C1143.513,550.399,1141.054,539.016,1141.054,539.016z"/>
			<path fill="#EB9665" d="M1134.841,548.96c-0.497-0.56-0.838-1.23-1.084-1.946c-0.244-0.72-0.354-1.505-0.289-2.327
				c0.051-0.408,0.146-0.822,0.299-1.227c0.144-0.407,0.381-0.788,0.654-1.131c0.553-0.693,1.309-1.168,2.066-1.463l-0.496,1.252
				c-0.209-0.486-0.402-0.976-0.645-1.425c-0.251-0.439-0.484-0.891-0.803-1.229c-0.301-0.361-0.646-0.619-1.087-0.729
				c-0.438-0.099-0.993-0.001-1.507,0.281c0.271-0.519,0.797-0.972,1.489-1.095c0.7-0.139,1.437,0.139,1.979,0.51
				c0.546,0.389,0.997,0.852,1.353,1.357c0.36,0.504,0.68,1.021,0.938,1.561l0.389,0.814l-0.885,0.438
				c-0.525,0.261-0.995,0.559-1.34,0.955c-0.186,0.189-0.329,0.409-0.467,0.645c-0.135,0.236-0.245,0.5-0.324,0.782
				C1134.726,546.124,1134.755,547.5,1134.841,548.96z"/>
			<path fill="#F7F7F7" d="M1139.418,556.103c0,0,1.525,4.975-0.884,6.263c-1.825-2.608-2.172-5.702-2.172-5.702L1139.418,556.103z"
				/>
			<path fill="#DE8D60" d="M1164.987,574.184c0,0,0.098-2.07,0.977-2.755c0.883-0.686,2.514-0.17,2.514-0.17L1164.987,574.184z"/>
			<polygon fill="#F7F7F7" points="1165.183,620.313 1170.356,609.655 1182.5,614.075 1176.74,624.962 			"/>
			<polygon fill="#F7F7F7" points="1187.876,625.312 1182.5,614.075 1193.175,609.655 1198.847,618.497 			"/>
			<path fill="#FFA673" d="M1153.071,547.63c0,0,6.666,0.581,12.224,1.838c5.562,1.257,10.167,2.156,10.167,2.156
				s-6.253-2.508-10.246-3.713C1161.223,546.707,1153.071,547.63,1153.071,547.63z"/>
			<path fill="#FFA673" d="M1192.355,550.852c0,0,8.407-4.003,14.911-4.336c6.504-0.33,7.588,0.634,7.588,0.634
				s-6.784,0.48-9.778,0.963C1202.089,548.595,1192.355,550.852,1192.355,550.852z"/>
			<g>
				<path fill="#5C2F1B" d="M1146.693,519.761c0.095-0.555,0.193-1.109,0.296-1.648c-1.924-1.242-5.193-3.041-8.937-3.797
					c-0.215,0.471-0.426,0.957-0.641,1.446C1141.428,516.486,1144.96,518.579,1146.693,519.761z"/>
				<path fill="#5C2F1B" d="M1147.478,491.3c-0.171,0.636-0.335,1.263-0.486,1.865c2.994,3.491,6.434,6.445,8.851,8.344
					c0.426-0.316,0.873-0.625,1.345-0.926C1154.642,498.595,1150.685,495.224,1147.478,491.3z"/>
				<path fill="#5C2F1B" d="M1209.433,479.358c-6.091,5.076-9.276,12.072-10.894,17.489c0.496,0.129,1.002,0.256,1.479,0.402
					c1.539-5.148,4.525-11.786,10.236-16.608C1209.979,480.204,1209.706,479.771,1209.433,479.358z"/>
				<path fill="#5C2F1B" d="M1177.567,466.794c-0.562,0.166-0.097,3.344-0.663,3.514c-2.055,9.852-2.784,18.966-2.438,25.111
					c0.515-0.049,1.014-0.107,1.549-0.145C1175.683,489.005,1175.4,476.487,1177.567,466.794z"/>
				<path fill="#5C2F1B" d="M1231.036,507.697c-0.9-1.637-4.018,3.497-5.062,1.665c-3.242,1.676-5.959,3.858-7.98,5.778
					c0.096,0.636,0.178,1.294,0.249,1.975C1220.254,515.112,1227.458,509.545,1231.036,507.697z"/>
			</g>
			<path fill="#FFFFFF" d="M1167.076,574.021c0,0,4.405,8.119,12.163,9.5c7.757,1.381,15.604-5.301,15.604-5.301
				s-8.001,1.517-14.6,0.459C1173.646,577.622,1167.076,574.021,1167.076,574.021z"/>
		</g>
	</g>

</g>
</svg>
