<?xml version="1.0" encoding="utf-8"?>
<!-- Generator: Adobe Illustrator 16.0.0, SVG Export Plug-In . SVG Version: 6.00 Build 0)  -->
<!--<!DOCTYPE svg PUBLIC "-//W3C//DTD SVG 1.1//EN" "http://www.w3.org/Graphics/SVG/1.1/DTD/svg11.dtd">-->
<svg version="1.1" xmlns="http://www.w3.org/2000/svg" xmlns:xlink="http://www.w3.org/1999/xlink" x="0px" y="0px"
	 width="525.464px" height="525.464px" viewBox="0 0 525.464 525.464" enable-background="new 0 0 525.464 525.464"
	 xml:space="preserve">

<!--	<g>-->
<!--		<defs>-->
<!--			<circle id="SVGID_117_" cx="1181.432" cy="534.276" r="102.118"/>-->
<!--		</defs>-->
<!--		<clipPath id="SVGID_118_">-->
<!--			<use xlink:href="#SVGID_117_"  overflow="visible"/>-->
<!--		</clipPath>-->
		<g >
			<path fill="#29150C" d="M1182.419,503.295c0,9.936-11.299,17.989-25.232,17.989c-13.936,0-25.234-8.054-25.234-17.989
				c0-0.813-7.318-17.991,25.234-17.991C1171.12,485.304,1182.419,493.358,1182.419,503.295z"/>
			<linearGradient id="SVGID_119_" gradientUnits="userSpaceOnUse" x1="1182.416" y1="619.1748" x2="1181.5891" y2="590.235">
				<stop  offset="0" style="stop-color:#FFB991"/>
				<stop  offset="0.2823" style="stop-color:#F6AC82"/>
				<stop  offset="0.6403" style="stop-color:#EFA176"/>
				<stop  offset="1" style="stop-color:#ED9E72"/>
			</linearGradient>
			<rect x="1170.356" y="574.287" fill="url(#SVGID_119_)" width="22.818" height="44.21"/>
			<path fill="#828282" d="M1142.145,637.837c0,0,1.171-20.858,16.827-19.34c15.655,1.516,49.797-2.904,55.096,1.502
				c5.301,4.408,5.662,18.32,5.662,18.32s-25.983,6.744-40.721,6.744C1164.271,645.063,1142.145,637.837,1142.145,637.837z"/>
			<polygon fill="#DBDBDB" points="1170.356,617.483 1174.691,644.882 1187.873,644.481 1194.762,617.982 1182.5,614.075 			"/>
			<path fill="#FFB991" d="M1182.5,476.628c37.494,0,43.923,51.052,43.923,68.814c0,17.766-33.723,54.029-43.923,54.029
				s-43.921-29.489-43.921-50.941C1138.579,527.076,1142.915,476.628,1182.5,476.628z"/>
			<path fill="#FFAE80" d="M1220.15,559.233c0,3.184-15.639,5.763-34.936,5.763c-19.292,0-34.933-2.579-34.933-5.763
				c0-3.186,15.641-5.766,34.933-5.766C1204.512,553.468,1220.15,556.048,1220.15,559.233z"/>
			<path fill="#29150C" d="M1151.138,507.024c4.407-5.797,12.449-10.902,31.156-10.902c15.02,0,51.665,42.278,33.64,14.035
				c-10.628-16.664,10.908,36.872,8.189,35.892c9.745-15.35,8.978-17.977,8.978-17.977c1.249-1.527,24.84,14.68-4.588-29.573
				c-12.278-30.508-39.794-32.569-39.794-32.569c3.789-0.047-57.998,17.669-51,24.667c0.188,0.188,13.601-14.601-2.539,12.902
				c0.324,14.32-3.339,15.801-3.4,29.063c2.892,17.014,6.594,20.047,6.594,20.047s5.058,0.43,6.021-12.561
				C1145.242,528.627,1146.562,513.048,1151.138,507.024z"/>
			<path fill="#DE8D60" d="M1187.753,575.21l-0.552-1.846c0.025-0.008,2.703-0.823,5.054-2.487c2.624-1.858,3.765-3.973,3.399-6.294
				l-9.224,1.464l-0.35-0.449c-0.233-0.301-2.268-3.312-1.742-16.382c0.655-16.308,9.664-26.494,10.048-26.92l1.433,1.289
				c-0.09,0.099-8.929,10.123-9.555,25.709c-0.385,9.563,0.646,13.408,1.126,14.649l9.679-1.535l0.243,0.805
				c0.59,1.961,0.414,3.839-0.524,5.582C1194.429,573.174,1188.023,575.129,1187.753,575.21z"/>
			<path fill="#FFFFFF" d="M1151.708,538.649c0,0-1.205,3.92,1.363,8.98c5.923,0,13.641,0.303,22.391,3.994
				c0.805-3.211-2.861-13.447-9.618-15.365C1159.083,534.341,1151.708,538.649,1151.708,538.649z"/>
			<g>
				<defs>
					<path id="SVGID_120_" d="M1151.708,538.649c0,0-1.205,3.92,1.363,8.98c5.479,0.146,13.641,0.303,22.391,3.994
						c0.805-3.211-2.861-13.447-9.618-15.365C1159.083,534.341,1151.708,538.649,1151.708,538.649z"/>
				</defs>
				<clipPath id="SVGID_121_">
					<use xlink:href="#SVGID_120_"  overflow="visible"/>
				</clipPath>
				<linearGradient id="SVGID_122_" gradientUnits="userSpaceOnUse" x1="1164.7041" y1="548.4727" x2="1164.7041" y2="537.1106">
					<stop  offset="0" style="stop-color:#39B4BD"/>
					<stop  offset="0.0092" style="stop-color:#39B3BC"/>
					<stop  offset="0.2735" style="stop-color:#2F969D"/>
					<stop  offset="0.5313" style="stop-color:#288187"/>
					<stop  offset="0.7776" style="stop-color:#24747A"/>
					<stop  offset="1" style="stop-color:#237075"/>
				</linearGradient>
				<circle clip-path="url(#SVGID_121_)" fill="url(#SVGID_122_)" cx="664.704" cy="43.642" r="7.617"/>
			</g>
			<path fill="#381D11" d="M1152.457,529.209c0,0,9.763-8.865,25.203-4.601c0.209-3.428-3.276-5.578-3.276-5.578
				s-11.001-1.799-22.078,8.998C1152.457,529.209,1152.457,529.209,1152.457,529.209z"/>
			<path fill="#381D11" d="M1195.8,519.939l-3.029,4.837c0,0,14.68-4.561,24.089,4.521c0.943-1.532,0.943-1.532,0.943-1.532
				S1212.784,517.153,1195.8,519.939z"/>
			<path fill="#381D11" d="M1150.253,540.126c0,0,0.34-0.473,1.061-1.147c0.714-0.683,1.802-1.589,3.262-2.462
				c0.731-0.429,1.554-0.856,2.469-1.23c0.911-0.377,1.916-0.699,2.999-0.934c1.081-0.221,2.26-0.363,3.456-0.315
				c0.473,0.001,1.22,0.089,1.836,0.177l0.92,0.186c0.304,0.078,0.604,0.179,0.907,0.27c1.203,0.396,2.345,1.006,3.329,1.76
				c0.982,0.76,1.812,1.646,2.461,2.582c1.307,1.871,1.976,3.829,2.314,5.496c0.327,1.678,0.382,3.075,0.344,4.05
				c-0.039,0.975-0.148,1.521-0.148,1.521s-0.166-0.531-0.502-1.417c-0.333-0.884-0.823-2.134-1.545-3.511
				c-0.712-1.377-1.656-2.893-2.892-4.167c-0.624-0.631-1.304-1.208-2.059-1.663c-0.749-0.464-1.563-0.811-2.415-1.053
				c-0.428-0.118-0.868-0.199-1.311-0.275c-0.447-0.042-0.76-0.105-1.35-0.104c-0.922-0.047-1.829,0.035-2.738,0.126
				c-0.907,0.106-1.801,0.242-2.657,0.411c-0.857,0.156-1.679,0.336-2.445,0.505c-1.569,0.358-2.876,0.657-3.792,0.866
				C1150.821,540.02,1150.253,540.126,1150.253,540.126z"/>
			<path fill="#FFFFFF" d="M1216.347,538.325c0,0,1.079,3.763-1.492,8.824c-5.229,0.02-13.744,0.012-22.499,3.702
				c-0.801-3.21,2.862-12.675,9.621-14.593C1208.734,534.341,1216.347,538.325,1216.347,538.325z"/>
			<g>
				<defs>
					<path id="SVGID_123_" d="M1216.347,538.325c0,0,1.079,3.763-1.492,8.824c-7.027-0.139-14.158,0.188-22.499,3.702
						c-0.801-3.21,2.862-12.675,9.621-14.593C1208.734,534.341,1216.347,538.325,1216.347,538.325z"/>
				</defs>
				<clipPath id="SVGID_124_">
					<use xlink:href="#SVGID_123_"  overflow="visible"/>
				</clipPath>
				<linearGradient id="SVGID_125_" gradientUnits="userSpaceOnUse" x1="603.2773" y1="548.4727" x2="603.2773" y2="537.1106">
					<stop  offset="0" style="stop-color:#39B4BD"/>
					<stop  offset="0.0092" style="stop-color:#39B3BC"/>
					<stop  offset="0.2735" style="stop-color:#2F969D"/>
					<stop  offset="0.5313" style="stop-color:#288187"/>
					<stop  offset="0.7776" style="stop-color:#24747A"/>
					<stop  offset="1" style="stop-color:#237075"/>
				</linearGradient>
<!--				<circle clip-path="url(#SVGID_124_)" fill="url(#SVGID_125_)" cx="603.277" cy="543.642" r="7.618"/>-->
			</g>
			<path fill="#381D11" d="M1217.803,539.798c0,0-0.565-0.077-1.496-0.256c-0.911-0.172-2.214-0.417-3.776-0.711
				c-0.765-0.145-1.583-0.296-2.439-0.436c-0.854-0.133-1.747-0.286-2.652-0.365c-0.891-0.109-1.859-0.157-2.699-0.152l-0.785,0.018
				l-0.621,0.059c-0.411,0.052-0.881,0.117-1.302,0.221c-0.862,0.195-1.688,0.496-2.452,0.899c-0.767,0.404-1.472,0.919-2.107,1.501
				c-1.273,1.172-2.254,2.612-2.997,3.936c-0.755,1.323-1.259,2.543-1.603,3.406c-0.346,0.866-0.515,1.389-0.515,1.389
				s-0.11-0.539-0.142-1.501c-0.029-0.962,0.033-2.345,0.406-3.997c0.385-1.639,1.109-3.57,2.516-5.354
				c0.697-0.889,1.569-1.725,2.588-2.406c1.015-0.686,2.171-1.204,3.361-1.531c0.598-0.188,1.183-0.278,1.814-0.367l0.951-0.098
				l0.785-0.022c0.659-0.009,1.184,0.044,1.766,0.086c0.554,0.085,1.109,0.149,1.633,0.271c1.058,0.218,2.031,0.547,2.936,0.886
				c0.895,0.361,1.714,0.748,2.441,1.154c0.726,0.41,1.373,0.807,1.916,1.213c0.548,0.396,1.014,0.752,1.376,1.082
				C1217.442,539.353,1217.803,539.798,1217.803,539.798z"/>
			<path fill="#FFB991" d="M1221.509,539.016c0,0,3.989-5.235,5.525-6.439c2.221,1.29,3.646,4.576,3.646,4.576
				s-1.646,27.618-9.172,22.72C1219.55,550.399,1221.509,539.016,1221.509,539.016z"/>
			<path fill="#EB9665" d="M1226.457,548.96c0.007-1.393,0.018-2.707-0.256-3.881c-0.128-0.584-0.331-1.111-0.612-1.55
				c-0.285-0.438-0.659-0.778-1.119-1.054l-0.656-0.392l0.256-0.633c0.393-0.971,0.867-1.944,1.703-2.768
				c0.211-0.204,0.457-0.385,0.742-0.527c0.281-0.144,0.625-0.23,0.957-0.189c0.683,0.077,1.106,0.573,1.29,1.049
				c-0.423-0.304-0.922-0.442-1.261-0.323c-0.333,0.115-0.588,0.406-0.81,0.775c-0.448,0.729-0.739,1.648-1.042,2.547l-0.399-1.023
				c0.727,0.352,1.375,0.945,1.789,1.659c0.403,0.718,0.593,1.505,0.616,2.253c0.019,0.752-0.084,1.475-0.291,2.155
				C1227.156,547.737,1226.876,548.388,1226.457,548.96z"/>
			<path fill="#F7F7F7" d="M1222.811,556.103c0,0-1.217,4.975,0.704,6.263c1.455-2.608,1.731-5.702,1.731-5.702L1222.811,556.103z"
				/>
			<path fill="#FFB991" d="M1141.054,539.016c0,0-5.008-5.235-6.936-6.439c-2.787,1.29-4.577,4.576-4.577,4.576
				s2.065,27.618,11.513,22.72C1143.513,550.399,1141.054,539.016,1141.054,539.016z"/>
			<path fill="#EB9665" d="M1134.841,548.96c-0.497-0.56-0.838-1.23-1.084-1.946c-0.244-0.72-0.354-1.505-0.289-2.327
				c0.051-0.408,0.146-0.822,0.299-1.227c0.144-0.407,0.381-0.788,0.654-1.131c0.553-0.693,1.309-1.168,2.066-1.463l-0.496,1.252
				c-0.209-0.486-0.402-0.976-0.645-1.425c-0.251-0.439-0.484-0.891-0.803-1.229c-0.301-0.361-0.646-0.619-1.087-0.729
				c-0.438-0.099-0.993-0.001-1.507,0.281c0.271-0.519,0.797-0.972,1.489-1.095c0.7-0.139,1.437,0.139,1.979,0.51
				c0.546,0.389,0.997,0.852,1.353,1.357c0.36,0.504,0.68,1.021,0.938,1.561l0.389,0.814l-0.885,0.438
				c-0.525,0.261-0.995,0.559-1.34,0.955c-0.186,0.189-0.329,0.409-0.467,0.645c-0.135,0.236-0.245,0.5-0.324,0.782
				C1134.726,546.124,1134.755,547.5,1134.841,548.96z"/>
			<path fill="#F7F7F7" d="M1139.418,556.103c0,0,1.525,4.975-0.884,6.263c-1.825-2.608-2.172-5.702-2.172-5.702L1139.418,556.103z"
				/>
			<path fill="#DE8D60" d="M1164.987,574.184c0,0,0.098-2.07,0.977-2.755c0.883-0.686,2.514-0.17,2.514-0.17L1164.987,574.184z"/>
			<polygon fill="#F7F7F7" points="1165.183,620.313 1170.356,609.655 1182.5,614.075 1176.74,624.962 			"/>
			<polygon fill="#F7F7F7" points="1187.876,625.312 1182.5,614.075 1193.175,609.655 1198.847,618.497 			"/>
			<path fill="#FFA673" d="M1153.071,547.63c0,0,6.666,0.581,12.224,1.838c5.562,1.257,10.167,2.156,10.167,2.156
				s-6.253-2.508-10.246-3.713C1161.223,546.707,1153.071,547.63,1153.071,547.63z"/>
			<path fill="#FFA673" d="M1192.355,550.852c0,0,8.407-4.003,14.911-4.336c6.504-0.33,7.588,0.634,7.588,0.634
				s-6.784,0.48-9.778,0.963C1202.089,548.595,1192.355,550.852,1192.355,550.852z"/>
			<g>
				<path fill="#5C2F1B" d="M1146.693,519.761c0.095-0.555,0.193-1.109,0.296-1.648c-1.924-1.242-5.193-3.041-8.937-3.797
					c-0.215,0.471-0.426,0.957-0.641,1.446C1141.428,516.486,1144.96,518.579,1146.693,519.761z"/>
				<path fill="#5C2F1B" d="M1147.478,491.3c-0.171,0.636-0.335,1.263-0.486,1.865c2.994,3.491,6.434,6.445,8.851,8.344
					c0.426-0.316,0.873-0.625,1.345-0.926C1154.642,498.595,1150.685,495.224,1147.478,491.3z"/>
				<path fill="#5C2F1B" d="M1209.433,479.358c-6.091,5.076-9.276,12.072-10.894,17.489c0.496,0.129,1.002,0.256,1.479,0.402
					c1.539-5.148,4.525-11.786,10.236-16.608C1209.979,480.204,1209.706,479.771,1209.433,479.358z"/>
				<path fill="#5C2F1B" d="M1177.567,466.794c-0.562,0.166-0.097,3.344-0.663,3.514c-2.055,9.852-2.784,18.966-2.438,25.111
					c0.515-0.049,1.014-0.107,1.549-0.145C1175.683,489.005,1175.4,476.487,1177.567,466.794z"/>
				<path fill="#5C2F1B" d="M1231.036,507.697c-0.9-1.637-4.018,3.497-5.062,1.665c-3.242,1.676-5.959,3.858-7.98,5.778
					c0.096,0.636,0.178,1.294,0.249,1.975C1220.254,515.112,1227.458,509.545,1231.036,507.697z"/>
			</g>
			<path fill="#FFFFFF" d="M1167.076,574.021c0,0,4.405,8.119,12.163,9.5c7.757,1.381,15.604-5.301,15.604-5.301
				s-8.001,1.517-14.6,0.459C1173.646,577.622,1167.076,574.021,1167.076,574.021z"/>
		</g>
<!--	</g>-->
</svg>
