<?xml version="1.0" encoding="utf-8"?>
<!-- Generator: Adobe Illustrator 16.0.0, SVG Export Plug-In . SVG Version: 6.00 Build 0)  -->
<!DOCTYPE svg PUBLIC "-//W3C//DTD SVG 1.1//EN" "http://www.w3.org/Graphics/SVG/1.1/DTD/svg11.dtd">
<svg version="1.1" id="Layer_1" xmlns="http://www.w3.org/2000/svg" xmlns:xlink="http://www.w3.org/1999/xlink" x="0px" y="0px"
	 width="525.464px" height="334.038px" viewBox="0 0 525.464 334.038" enable-background="new 0 0 525.464 334.038"
	 xml:space="preserve">
<g>
	<path fill-rule="evenodd" clip-rule="evenodd" fill="#3597D3" d="M525.421,301.278H454.87l42.276-60.707h-38.038v-15.26h66.313
		L484.02,286.02h41.401V301.278L525.421,301.278z M429.94,301.278v-75.968h17.393v75.968H429.94L429.94,301.278z M364.468,225.312
		v42.824c0,7.356,1.531,12.661,4.566,15.86c3.036,3.199,7.958,4.813,14.794,4.813c6.837,0,11.759-1.614,14.794-4.813
		c3.036-3.199,4.567-8.504,4.567-15.86v-42.824h17.392v37.602c0,14.521-2.898,25.076-8.723,31.639
		c-5.825,6.562-15.123,9.845-27.866,9.845c-12.962,0-22.368-3.254-28.193-9.763c-5.824-6.509-8.724-17.091-8.724-31.721v-37.602
		H364.468L364.468,225.312z M297.283,238.05c14.306,0,25.903,11.598,25.903,25.903c0,14.307-11.598,25.904-25.903,25.904
		c-14.307,0-25.904-11.598-25.904-25.904C271.378,249.647,282.976,238.05,297.283,238.05L297.283,238.05z M297.283,223.063
		c9.053,0,17.417,2.943,24.191,7.924v-5.857h16.27v11.104l0,0v18.438v3.359v1.761v10.086v8.9l0,0v55.261h-16.27V296.92
		c-6.774,4.98-15.139,7.923-24.191,7.923c-22.583,0-40.89-18.307-40.89-40.89S274.7,223.063,297.283,223.063L297.283,223.063z"/>
	<path fill-rule="evenodd" clip-rule="evenodd" fill="#3597D3" d="M263.072,29.655c23.392,0,42.355,18.963,42.355,42.355
		c0,0.819-0.025,1.632-0.071,2.44h-5.694h-9.869h-53.442c1.233,13.675,12.725,24.393,26.721,24.393c9.269,0,17.44-4.7,22.261-11.847
		l13.697,7.401c-7.479,11.989-20.786,19.968-35.958,19.968c-23.393,0-42.356-18.963-42.356-42.356
		C220.716,48.619,239.679,29.655,263.072,29.655L263.072,29.655z M288.159,62.476c-3.846-10.111-13.627-17.297-25.087-17.297
		c-11.46,0-21.242,7.186-25.087,17.297H288.159L288.159,62.476z M136.902,111.511V0h17.405v43.929
		c3.696-5.588,8.033-9.663,13.039-12.225c5.006-2.561,11.089-3.842,18.278-3.842c6.025,0,11.147,0.96,15.396,2.853
		c4.221,1.921,7.539,4.744,9.925,8.499c1.426,2.212,2.445,4.803,3.085,7.771c0.611,2.939,0.932,8.12,0.932,15.513v49.013h-18.686
		V70.007c0-10.624-1.281-17.696-3.871-21.188s-7.189-5.239-13.796-5.239c-4.308,0-8.179,0.786-11.555,2.387
		c-3.376,1.601-6.054,3.842-7.975,6.723c-1.368,1.95-2.329,4.424-2.853,7.48c-0.553,3.027-0.815,7.858-0.815,14.523v36.818H136.902
		L136.902,111.511z M94.938,111.511V46.897H80.793V30.657h14.145V0.096h18.511v30.561h14.145v16.241H113.45v64.614H94.938
		L94.938,111.511z"/>
	<path fill-rule="evenodd" clip-rule="evenodd" fill="#434CA0" d="M452.123,206.975V102.159h16.353v41.318
		c3.474-5.25,7.548-9.079,12.251-11.485c4.704-2.406,10.419-3.609,17.174-3.609c5.66,0,10.474,0.902,14.466,2.68
		c3.965,1.805,7.082,4.458,9.325,7.985c1.34,2.078,2.297,4.512,2.898,7.301c0.574,2.762,0.875,7.629,0.875,14.576v46.05h-17.556
		v-38.995c0-9.981-1.204-16.626-3.638-19.908s-6.754-4.922-12.962-4.922c-4.047,0-7.684,0.738-10.856,2.243
		c-3.172,1.504-5.688,3.609-7.492,6.317c-1.285,1.832-2.188,4.156-2.68,7.028c-0.521,2.844-0.767,7.383-0.767,13.645v34.593H452.123
		L452.123,206.975z M72.644,96.646c33.793,0,62.195,23.075,70.313,54.328v-19.967h16.353v12.47
		c3.473-5.25,7.547-9.079,12.251-11.485c4.703-2.406,10.419-3.609,17.173-3.609c5.66,0,10.473,0.902,14.466,2.68
		c3.965,1.805,7.083,4.458,9.325,7.985c1.34,2.078,2.297,4.512,2.898,7.301c0.575,2.762,0.875,7.629,0.875,14.576v46.05h-17.556
		v-38.995c0-9.981-1.203-16.626-3.637-19.908c-2.434-3.282-6.754-4.922-12.962-4.922c-4.047,0-7.684,0.738-10.856,2.243
		c-3.172,1.504-5.688,3.609-7.493,6.317c-1.286,1.832-2.188,4.156-2.68,7.028c-0.52,2.844-0.766,7.383-0.766,13.645v34.593h-17.392
		v-19.366c-4.496,17.305-15.209,32.102-29.614,41.862v-34.709l-7.975-4.31l-11.574-6.254c-4.795,7.109-12.924,11.785-22.145,11.785
		c-13.924,0-25.355-10.662-26.582-24.266h53.163h9.817h5.294v-8.527l0-0.002v-34.341H96.578v6.473
		c-6.98-5.131-15.599-8.165-24.928-8.165c-23.27,0-42.134,18.864-42.134,42.135c0,23.27,18.864,42.134,42.134,42.134
		c9.329,0,17.947-3.033,24.928-8.165v34.635c-7.495,2.615-15.547,4.04-23.934,4.04C32.524,241.935,0,209.411,0,169.291
		C0,129.17,32.524,96.646,72.644,96.646L72.644,96.646z M96.578,159.733v0.072H46.694c3.825-10.059,13.555-17.207,24.956-17.207
		C83.023,142.598,92.733,149.713,96.578,159.733L96.578,159.733z M287.034,168.745c0-7.849-1.832-13.974-5.497-18.349
		c-3.664-4.403-8.777-6.591-15.341-6.591c-6.59,0-11.758,2.27-15.505,6.782c-3.774,4.512-5.661,10.802-5.661,18.814
		c0,8.067,1.805,14.302,5.442,18.678c3.637,4.402,8.778,6.59,15.396,6.59c6.263,0,11.349-2.379,15.259-7.137
		C285.065,182.773,287.034,176.512,287.034,168.745L287.034,168.745z M303.933,202.271c0,14.849-2.953,25.295-8.888,31.365
		c-5.934,6.071-15.942,9.106-29.998,9.106c-10.473,0-18.841-2.215-25.076-6.646c-6.262-4.402-9.434-10.281-9.543-17.638
		l18.677-0.082c0.273,3.281,1.805,5.798,4.567,7.52c2.789,1.724,6.7,2.571,11.704,2.571c7.438,0,12.771-1.641,16.024-4.896
		c3.282-3.254,4.923-8.723,4.978-16.353l0.164-10.063c-3.091,4.349-6.728,7.603-10.856,9.735c-4.157,2.133-8.888,3.199-14.247,3.199
		c-10.72,0-19.197-3.664-25.35-11.021c-6.18-7.328-9.27-17.392-9.27-30.162c0-12.114,3.145-21.904,9.462-29.342
		c6.317-7.465,14.548-11.184,24.693-11.184c6.208,0,11.513,1.285,15.915,3.883c4.402,2.571,7.63,6.29,9.653,11.13v-12.388h17.392
		V202.271L303.933,202.271z M320.793,206.975V102.159h17.392v104.815H320.793L320.793,206.975z M355.892,206.975v-75.968h17.392
		v75.968H355.892L355.892,206.975z M381.474,193.192l14.438-7.876c1.066,3.802,3.035,6.7,5.934,8.669
		c2.871,1.996,6.591,2.98,11.103,2.98c3.911,0,6.974-0.902,9.188-2.68c2.215-1.805,3.309-4.238,3.309-7.356
		c0-4.102-3.938-7.629-11.841-10.582c-2.652-0.957-4.73-1.75-6.152-2.407c-8.122-3.363-13.81-6.781-17.037-10.254
		c-3.227-3.446-4.84-7.685-4.84-12.634c0-6.782,2.652-12.278,7.958-16.517c5.332-4.211,12.36-6.317,21.11-6.317
		c5.88,0,10.911,1.094,15.095,3.254c4.185,2.16,7.247,5.223,9.161,9.243l-12.333,8.504c-0.902-2.406-2.488-4.321-4.758-5.743
		s-4.895-2.133-7.876-2.133c-3.309,0-5.961,0.793-7.957,2.352c-1.997,1.586-3.009,3.692-3.009,6.317
		c0,3.938,4.485,7.548,13.428,10.802c2.844,1.012,5.031,1.859,6.562,2.488c7.001,2.789,12.005,5.906,15.04,9.406
		c3.008,3.501,4.512,7.876,4.512,13.099c0,7.603-2.762,13.537-8.258,17.83c-5.497,4.293-13.071,6.453-22.752,6.453
		c-7.411,0-13.591-1.395-18.485-4.156C388.091,203.146,384.263,198.907,381.474,193.192L381.474,193.192z"/>
	<path fill-rule="evenodd" clip-rule="evenodd" fill="#ED2E39" d="M364.588,102.159c4.909,0,8.889,3.98,8.889,8.89
		s-3.979,8.89-8.889,8.89c-4.91,0-8.89-3.98-8.89-8.89S359.678,102.159,364.588,102.159L364.588,102.159z"/>
</g>
</svg>
