<?xml version="1.0" encoding="utf-8"?>
<!-- Generator: Adobe Illustrator 16.0.0, SVG Export Plug-In . SVG Version: 6.00 Build 0)  -->
<!DOCTYPE svg PUBLIC "-//W3C//DTD SVG 1.1//EN" "http://www.w3.org/Graphics/SVG/1.1/DTD/svg11.dtd">
<svg version="1.1" id="Layer_1" xmlns="http://www.w3.org/2000/svg" xmlns:xlink="http://www.w3.org/1999/xlink" x="0px" y="0px"
	 width="137.125px" height="174.768px" viewBox="0 0 137.125 174.768" enable-background="new 0 0 137.125 174.768"
	 xml:space="preserve">
<rect x="26.532" y="99.956" fill="#15100D" width="84.928" height="50.441"/>
<g>
	<linearGradient id="SVGID_1_" gradientUnits="userSpaceOnUse" x1="70.4751" y1="148.8789" x2="69.6482" y2="119.9391">
		<stop  offset="0" style="stop-color:#FBB891"/>
		<stop  offset="0.0265" style="stop-color:#FAB790"/>
		<stop  offset="0.3499" style="stop-color:#F2A97F"/>
		<stop  offset="0.6744" style="stop-color:#EEA176"/>
		<stop  offset="1" style="stop-color:#ED9F73"/>
	</linearGradient>
	<rect x="58.415" y="103.991" fill="url(#SVGID_1_)" width="22.818" height="44.21"/>
	<path fill="#838383" d="M30.203,167.541c0,0,1.171-20.858,16.827-19.34c15.655,1.516,49.797-2.904,55.096,1.502
		c5.301,4.408,5.662,18.32,5.662,18.32s-25.983,6.744-40.721,6.744C52.329,174.768,30.203,167.541,30.203,167.541z"/>
	<polygon fill="#DCDBDB" points="58.415,147.188 62.75,174.586 75.932,174.186 82.82,147.687 70.559,143.779 	"/>
	<path fill="#FBB891" d="M70.559,6.332c37.494,0,43.923,51.052,43.923,68.814c0,17.766-33.723,54.029-43.923,54.029
		S26.638,99.687,26.638,78.234C26.638,56.78,30.974,6.332,70.559,6.332z"/>
	<path fill="#F9AD80" d="M108.209,88.938c0,3.184-15.639,5.763-34.936,5.763c-19.292,0-34.933-2.579-34.933-5.763
		c0-3.186,15.641-5.766,34.933-5.766C92.57,83.172,108.209,85.752,108.209,88.938z"/>
	<path fill="#DD8C5F" d="M75.812,104.914l-0.552-1.846c0.025-0.008,2.703-0.823,5.054-2.487c2.624-1.858,3.765-3.973,3.399-6.294
		l-9.224,1.464l-0.35-0.449c-0.233-0.301-2.268-3.312-1.742-16.382C73.053,62.612,82.062,52.426,82.445,52l1.433,1.289
		c-0.09,0.099-8.929,10.123-9.555,25.709c-0.385,9.563,0.646,13.408,1.126,14.649l9.679-1.535l0.243,0.805
		c0.59,1.961,0.414,3.839-0.524,5.582C82.487,102.878,76.082,104.833,75.812,104.914z"/>
	<path fill="#FFFFFF" d="M39.767,68.354c0,0-1.205,3.92,1.363,8.98c5.923,0,13.641,0.303,22.391,3.994
		c0.805-3.211-2.861-13.447-9.618-15.365C47.142,64.045,39.767,68.354,39.767,68.354z"/>
	<g>
		<defs>
			<path id="SVGID_2_" d="M39.767,68.354c0,0-1.205,3.92,1.363,8.98c5.479,0.146,13.641,0.303,22.391,3.994
				c0.805-3.211-2.861-13.447-9.618-15.365C47.142,64.045,39.767,68.354,39.767,68.354z"/>
		</defs>
		<clipPath id="SVGID_3_">
			<use xlink:href="#SVGID_2_"  overflow="visible"/>
		</clipPath>
		<linearGradient id="SVGID_4_" gradientUnits="userSpaceOnUse" x1="52.7627" y1="78.1768" x2="52.7627" y2="66.8147">
			<stop  offset="0" style="stop-color:#38B4BC"/>
			<stop  offset="0.1042" style="stop-color:#34A5AC"/>
			<stop  offset="0.343" style="stop-color:#2E8D93"/>
			<stop  offset="0.5762" style="stop-color:#2A7D82"/>
			<stop  offset="0.799" style="stop-color:#277479"/>
			<stop  offset="1" style="stop-color:#267176"/>
		</linearGradient>
		<circle clip-path="url(#SVGID_3_)" fill="url(#SVGID_4_)" cx="52.763" cy="73.346" r="7.617"/>
	</g>
	<path fill="#381E13" d="M40.516,58.913c0,0,9.763-8.865,25.203-4.601c0.209-3.428-3.276-5.578-3.276-5.578
		s-11.001-1.799-22.078,8.998C40.516,58.913,40.516,58.913,40.516,58.913z"/>
	<path fill="#381E13" d="M83.858,49.644l-3.029,4.837c0,0,14.68-4.561,24.089,4.521c0.943-1.532,0.943-1.532,0.943-1.532
		S100.843,46.857,83.858,49.644z"/>
	<path fill="#381E13" d="M38.312,69.83c0,0,0.34-0.473,1.061-1.147c0.714-0.683,1.802-1.589,3.262-2.462
		c0.731-0.429,1.554-0.856,2.469-1.23c0.911-0.377,1.916-0.699,2.999-0.934c1.081-0.221,2.26-0.363,3.456-0.315
		c0.473,0.001,1.22,0.089,1.836,0.177l0.92,0.186c0.304,0.078,0.604,0.179,0.907,0.27c1.203,0.396,2.345,1.006,3.329,1.76
		c0.982,0.76,1.812,1.646,2.461,2.582c1.307,1.871,1.976,3.829,2.314,5.496c0.327,1.678,0.382,3.075,0.344,4.05
		c-0.039,0.975-0.148,1.521-0.148,1.521s-0.166-0.531-0.502-1.417c-0.333-0.884-0.823-2.134-1.545-3.511
		c-0.712-1.377-1.656-2.893-2.892-4.167c-0.624-0.631-1.304-1.208-2.059-1.663c-0.749-0.464-1.563-0.811-2.415-1.053
		c-0.428-0.118-0.868-0.199-1.311-0.275c-0.447-0.042-0.76-0.105-1.35-0.104c-0.922-0.047-1.829,0.035-2.738,0.126
		c-0.907,0.106-1.801,0.242-2.657,0.411c-0.857,0.156-1.679,0.336-2.445,0.505c-1.569,0.358-2.876,0.657-3.792,0.866
		C38.88,69.724,38.312,69.83,38.312,69.83z"/>
	<path fill="#FFFFFF" d="M104.405,68.029c0,0,1.079,3.763-1.492,8.824c-5.229,0.02-13.744,0.012-22.499,3.702
		c-0.801-3.21,2.862-12.675,9.621-14.593C96.793,64.045,104.405,68.029,104.405,68.029z"/>
	<g>
		<defs>
			<path id="SVGID_5_" d="M104.405,68.029c0,0,1.079,3.763-1.492,8.824c-7.027-0.139-14.158,0.188-22.499,3.702
				c-0.801-3.21,2.862-12.675,9.621-14.593C96.793,64.045,104.405,68.029,104.405,68.029z"/>
		</defs>
		<clipPath id="SVGID_6_">
			<use xlink:href="#SVGID_5_"  overflow="visible"/>
		</clipPath>
		<linearGradient id="SVGID_7_" gradientUnits="userSpaceOnUse" x1="91.3359" y1="78.1768" x2="91.3359" y2="66.8147">
			<stop  offset="0" style="stop-color:#38B4BC"/>
			<stop  offset="0.1042" style="stop-color:#34A5AC"/>
			<stop  offset="0.343" style="stop-color:#2E8D93"/>
			<stop  offset="0.5762" style="stop-color:#2A7D82"/>
			<stop  offset="0.799" style="stop-color:#277479"/>
			<stop  offset="1" style="stop-color:#267176"/>
		</linearGradient>
		<circle clip-path="url(#SVGID_6_)" fill="url(#SVGID_7_)" cx="91.336" cy="73.346" r="7.618"/>
	</g>
	<path fill="#381E13" d="M105.861,69.502c0,0-0.565-0.077-1.496-0.256c-0.911-0.172-2.214-0.417-3.776-0.711
		c-0.765-0.145-1.583-0.296-2.439-0.436c-0.854-0.133-1.747-0.286-2.652-0.365c-0.891-0.109-1.859-0.157-2.699-0.152L92.013,67.6
		l-0.621,0.059c-0.411,0.052-0.881,0.117-1.302,0.221c-0.862,0.195-1.688,0.496-2.452,0.899c-0.767,0.404-1.472,0.919-2.107,1.501
		c-1.273,1.172-2.254,2.612-2.997,3.936c-0.755,1.323-1.259,2.543-1.603,3.406c-0.346,0.866-0.515,1.389-0.515,1.389
		s-0.11-0.539-0.142-1.501c-0.029-0.962,0.033-2.345,0.406-3.997c0.385-1.639,1.109-3.57,2.516-5.354
		c0.697-0.889,1.569-1.725,2.588-2.406c1.015-0.686,2.171-1.204,3.361-1.531c0.598-0.188,1.183-0.278,1.814-0.367l0.951-0.098
		l0.785-0.022c0.659-0.009,1.184,0.044,1.766,0.086c0.554,0.085,1.109,0.149,1.633,0.271c1.058,0.218,2.031,0.547,2.936,0.886
		c0.895,0.361,1.714,0.748,2.441,1.154c0.726,0.41,1.373,0.807,1.916,1.213c0.548,0.396,1.014,0.752,1.376,1.082
		C105.501,69.057,105.861,69.502,105.861,69.502z"/>
	<path fill="#FBB891" d="M109.567,68.72c0,0,3.989-5.235,5.525-6.439c2.221,1.29,3.646,4.576,3.646,4.576s-1.646,27.618-9.172,22.72
		C107.608,80.104,109.567,68.72,109.567,68.72z"/>
	<path fill="#EC9766" d="M114.516,78.664c0.007-1.393,0.018-2.707-0.256-3.881c-0.128-0.584-0.331-1.111-0.612-1.55
		c-0.285-0.438-0.659-0.778-1.119-1.054l-0.656-0.392l0.256-0.633c0.393-0.971,0.867-1.944,1.703-2.768
		c0.211-0.204,0.457-0.385,0.742-0.527c0.281-0.144,0.625-0.23,0.957-0.189c0.683,0.077,1.106,0.573,1.29,1.049
		c-0.423-0.304-0.922-0.442-1.261-0.323c-0.333,0.115-0.588,0.406-0.81,0.775c-0.448,0.729-0.739,1.648-1.042,2.547l-0.399-1.023
		c0.727,0.352,1.375,0.945,1.789,1.659c0.403,0.718,0.593,1.505,0.616,2.253c0.019,0.752-0.084,1.475-0.291,2.155
		C115.215,77.441,114.935,78.092,114.516,78.664z"/>
	<path fill="#F7F8F8" d="M110.869,85.807c0,0-1.217,4.975,0.704,6.263c1.455-2.608,1.731-5.702,1.731-5.702L110.869,85.807z"/>
	<path fill="#DD8C5F" d="M53.046,103.888c0,0,0.098-2.07,0.977-2.755c0.883-0.686,2.514-0.17,2.514-0.17L53.046,103.888z"/>
	<polygon fill="#F7F8F8" points="53.241,150.018 58.415,139.359 70.559,143.779 64.799,154.666 	"/>
	<polygon fill="#F7F8F8" points="75.935,155.016 70.559,143.779 81.233,139.359 86.905,148.201 	"/>
	<path fill="#F9A574" d="M41.13,77.334c0,0,6.666,0.581,12.224,1.838c5.562,1.257,10.167,2.156,10.167,2.156
		s-6.253-2.508-10.246-3.713C49.281,76.411,41.13,77.334,41.13,77.334z"/>
	<path fill="#F9A574" d="M80.414,80.556c0,0,8.407-4.003,14.911-4.336c6.504-0.33,7.588,0.634,7.588,0.634s-6.784,0.48-9.778,0.963
		C90.147,78.299,80.414,80.556,80.414,80.556z"/>
	<path fill="#FFFFFF" d="M55.135,103.725c0,0,4.405,8.119,12.163,9.5c7.757,1.381,15.604-5.301,15.604-5.301
		s-8.001,1.517-14.6,0.459C61.704,107.326,55.135,103.725,55.135,103.725z"/>
	<g>
		<path fill="#FBB891" d="M29.112,68.72c0,0-5.008-5.235-6.936-6.439c-2.787,1.29-4.577,4.576-4.577,4.576
			s2.065,27.618,11.513,22.72C31.571,80.104,29.112,68.72,29.112,68.72z"/>
		<path fill="#EC9766" d="M22.899,78.664c-0.497-0.56-0.838-1.23-1.084-1.946c-0.244-0.72-0.354-1.505-0.289-2.327
			c0.051-0.408,0.146-0.822,0.299-1.227c0.144-0.407,0.381-0.788,0.654-1.131c0.553-0.693,1.309-1.168,2.066-1.463l-0.496,1.252
			c-0.209-0.486-0.402-0.976-0.645-1.425c-0.251-0.439-0.484-0.891-0.803-1.229c-0.301-0.361-0.646-0.619-1.087-0.729
			c-0.438-0.099-0.993-0.001-1.507,0.281c0.271-0.519,0.797-0.972,1.489-1.095c0.7-0.139,1.437,0.139,1.979,0.51
			c0.546,0.389,0.997,0.852,1.353,1.357c0.36,0.504,0.68,1.021,0.938,1.561l0.389,0.814l-0.885,0.438
			c-0.525,0.261-0.995,0.559-1.34,0.955c-0.186,0.189-0.329,0.409-0.467,0.645c-0.135,0.236-0.245,0.5-0.324,0.782
			C22.784,75.828,22.813,77.204,22.899,78.664z"/>
		<path fill="#F7F8F8" d="M27.477,85.807c0,0,1.525,4.975-0.884,6.263c-1.825-2.608-2.172-5.702-2.172-5.702L27.477,85.807z"/>
	</g>
	<path fill="#362013" d="M60.777,30.019c0,0-3.444,5.232-27.288,16.521c-1.804,5.93-2.875,46.69,3.259,55.792
		c5.497,8.156,19.71,16.941,15.576,21.578c-4.138,4.641-7.64,6.407-11.195,11.377c-1.552,2.172-14.598,15.109-14.598,15.109
		s-39.508-18.25-21.912-27.818c17.533-9.531,3.686-17.439-4.342-25.466c-2.063-2.062,7.992-59.287,9.795-63.408
		c11.342-12.115,39.31-27.652,62.088-33.68c11.344,2.063,60.034,40.588,59.845,57.555c-0.174,15.504-8.427,22.839-10.626,21.431
		c-13.771-8.802,38.946,30.561,2.897,64.77c-24.986,23.711-23.933-23.746-29.407-30.367c5.434-11.081,10.502-20.521,11.833-37.992
		c1.391-18.335-1.746-26.652-3.172-31.727L60.777,30.019z"/>
	<path fill="#59351D" d="M127.261,139c0.834-22.148-14.72-34.857-15.979-36.558c-0.258-1.194-0.518-2.388-0.777-3.585
		c-0.797-3.643-1.592-7.309-2.359-10.957c-4.422-21.148,1.543-24.045,6.811-26.598c2.93-1.418,5.697-2.762,6.09-6.984
		c1.014-10.911-45.922-45.541-51.117-49.334c1.186-2.777,0.714-1.874,1.474-3.417c-0.211-0.057,0.951-1.509,0.76-1.544
		c-0.26,0.068,0.26-0.078,0,0c-1.277,2.612-3.858,5.276-5.655,10.137l-0.119-0.447c-1.84,0.497-45.141,12.165-52.405,22.54
		C6.922,42.342,9.15,89.224,17.12,98.261c4.086,4.633,5.972,9.756,5.312,14.429c-0.617,4.361-3.478,8.287-8.275,11.345
		c-2.553,1.625-3.818,3.615-3.758,5.91c0.096,3.848,10.911,11.316,14.42,14.078c0.195-0.377,0.74-1.531,0.74-1.531
		c-3.262-2.586-13.839-9.264-13.925-12.576c-0.045-1.859,0.997-3.441,3.187-4.84c5.113-3.258,8.167-7.48,8.838-12.216
		c0.707-5.031-1.284-10.509-5.612-15.418c-6.86-7.783-10.294-54.127-3.048-64.477c6.595-9.424,46.199-20.542,51.184-21.91
		c-0.321,0.895-0.635,1.808-0.936,2.732l-0.088-0.176c-1.849,0.912-45.344,22.394-49.113,36.649
		c-3.947,14.924,7.418,43.212,13.679,57.085c-0.085-1.121-0.164-2.35-0.233-3.666c-6.316-14.562-15.779-39.764-12.247-53.103
		c0.321-1.226,0.985-2.521,1.901-3.858c0.986,4.936,4.562,21.488,9.862,31.514c0.007-0.876,0.011-1.753,0.021-2.623
		c-5.061-10.97-8.448-27.982-8.888-30.232c9.742-12.236,39.21-27.452,44.667-30.207c-1.421,4.629-1.882,7.552-2.018,8.385
		c0.006-0.006,0.012-0.018,0.012-0.018l1.175,0.498c0.223-1.399,0.505-2.824,0.858-4.262l46.136,21.041
		c7.295,7.527,9.027,11.4,8.842,13.393c-0.328,3.526-2.564,4.609-5.395,5.978c-5.395,2.616-12.109,5.87-7.484,27.97
		c0.77,3.65,1.566,7.318,2.361,10.965c4.826,22.154,10.667,38.429,6.444,51.082c0.369,0.197-0.396-0.107,0,0
		c3.928-11.703,0.481-24.768-3.776-44.613C116.398,112.265,129.054,120.131,127.261,139
		C127.178,129.796,126.866,139.833,127.261,139z M65.145,18.555c1.15-4.359,2.759-8.709,4.291-12.395
		C72.217,8.2,83.609,16.649,94.783,26.042c5.734,4.82,10.211,8.869,13.697,12.279L65.145,18.555z"/>
	<path fill="#F9AD80" d="M105.364,69.119c0,0,3.989-5.235,5.525-6.439c2.221,1.29,3.646,4.576,3.646,4.576
		s-1.646,27.618-9.172,22.72C103.405,80.503,105.364,69.119,105.364,69.119z"/>
	<path fill="#EC9766" d="M110.312,79.063c0.007-1.393,0.018-2.707-0.256-3.881c-0.128-0.584-0.331-1.111-0.612-1.55
		c-0.285-0.438-0.659-0.778-1.119-1.054l-0.656-0.392l0.256-0.633c0.393-0.971,0.867-1.944,1.703-2.768
		c0.211-0.204,0.457-0.385,0.742-0.527c0.281-0.144,0.625-0.23,0.957-0.189c0.683,0.077,1.106,0.573,1.29,1.049
		c-0.423-0.304-0.922-0.442-1.261-0.323c-0.333,0.115-0.588,0.406-0.81,0.775c-0.448,0.729-0.739,1.648-1.042,2.547l-0.399-1.023
		c0.727,0.352,1.375,0.945,1.789,1.659c0.403,0.718,0.593,1.505,0.616,2.253c0.019,0.752-0.084,1.475-0.291,2.155
		C111.012,77.841,110.731,78.491,110.312,79.063z"/>
	<path fill="#F6F7F8" d="M106.666,86.206c0,0-1.217,4.975,0.704,6.263c1.455-2.608,1.731-5.702,1.731-5.702L106.666,86.206z"/>
</g>
</svg>
