<?xml version="1.0" encoding="utf-8"?>
<!-- Generator: Adobe Illustrator 16.0.0, SVG Export Plug-In . SVG Version: 6.00 Build 0)  -->
<!DOCTYPE svg PUBLIC "-//W3C//DTD SVG 1.1//EN" "http://www.w3.org/Graphics/SVG/1.1/DTD/svg11.dtd">
<svg version="1.1" id="Layer_1" xmlns="http://www.w3.org/2000/svg" xmlns:xlink="http://www.w3.org/1999/xlink" x="0px" y="0px"
	 width="78.82px" height="50.105px" viewBox="0 0 78.82 50.105" enable-background="new 0 0 78.82 50.105" xml:space="preserve">
<g>
	<path fill-rule="evenodd" clip-rule="evenodd" fill="#3597D3" d="M76.842,44.185H66.79l6.024-8.649h-5.42v-2.176h9.448
		l-5.898,8.651h5.898V44.185L76.842,44.185z M63.237,44.185V33.359h2.479v10.825H63.237L63.237,44.185z M53.908,33.359v6.104
		c0,1.048,0.218,1.803,0.649,2.26c0.434,0.455,1.135,0.686,2.109,0.686s1.676-0.23,2.107-0.686c0.433-0.457,0.652-1.212,0.652-2.26
		v-6.104h2.478v5.359c0,2.068-0.413,3.572-1.243,4.508s-2.155,1.402-3.971,1.402c-1.848,0-3.188-0.463-4.018-1.391
		s-1.244-2.436-1.244-4.52v-5.359H53.908L53.908,33.359z M44.333,35.174c2.039,0,3.691,1.654,3.691,3.691
		c0,2.04-1.652,3.692-3.691,3.692c-2.039,0-3.691-1.652-3.691-3.692C40.642,36.828,42.295,35.174,44.333,35.174L44.333,35.174z
		 M44.333,33.039c1.29,0,2.482,0.42,3.447,1.13v-0.835h2.318v1.582l0,0v2.628v0.479v0.251v1.437v1.269l0,0v7.875h-2.318v-5.289
		c-0.965,0.709-2.157,1.129-3.447,1.129c-3.218,0-5.827-2.609-5.827-5.828C38.507,35.647,41.115,33.039,44.333,33.039L44.333,33.039
		z"/>
	<path fill-rule="evenodd" clip-rule="evenodd" fill="#3597D3" d="M39.458,5.479c3.333,0,6.035,2.703,6.035,6.036
		c0,0.117-0.003,0.232-0.01,0.348h-0.811h-1.406h-7.616c0.176,1.948,1.813,3.476,3.808,3.476c1.321,0,2.485-0.67,3.172-1.688
		l1.952,1.055c-1.065,1.708-2.962,2.845-5.124,2.845c-3.333,0-6.036-2.703-6.036-6.036C33.423,8.181,36.125,5.479,39.458,5.479
		L39.458,5.479z M43.034,10.156c-0.548-1.441-1.942-2.465-3.575-2.465s-3.027,1.024-3.575,2.465H43.034L43.034,10.156z
		 M21.479,17.143V1.253h2.48v6.26c0.527-0.796,1.145-1.377,1.858-1.742c0.714-0.365,1.58-0.547,2.605-0.547
		c0.858,0,1.588,0.136,2.194,0.406c0.602,0.274,1.074,0.676,1.415,1.211c0.203,0.315,0.348,0.685,0.439,1.107
		c0.087,0.419,0.133,1.157,0.133,2.211v6.984H29.94v-5.914c0-1.514-0.183-2.522-0.552-3.02s-1.024-0.747-1.966-0.747
		c-0.613,0-1.165,0.112-1.646,0.34c-0.48,0.228-0.862,0.547-1.136,0.958c-0.195,0.278-0.332,0.631-0.407,1.066
		c-0.078,0.431-0.116,1.12-0.116,2.07v5.246H21.479L21.479,17.143z M15.5,17.143V7.936h-2.016V5.622H15.5V1.267h2.638v4.355h2.016
		v2.314h-2.016v9.208H15.5L15.5,17.143z"/>
	<path fill-rule="evenodd" clip-rule="evenodd" fill="#434CA0" d="M66.399,30.746V15.811h2.33v5.887
		c0.494-0.747,1.075-1.294,1.745-1.637c0.671-0.343,1.485-0.514,2.447-0.514c0.806,0,1.493,0.128,2.062,0.382
		c0.564,0.256,1.01,0.635,1.328,1.138c0.191,0.296,0.328,0.644,0.414,1.04c0.082,0.395,0.125,1.088,0.125,2.077v6.562h-2.503V25.19
		c0-1.423-0.171-2.37-0.518-2.837c-0.347-0.468-0.963-0.701-1.847-0.701c-0.578,0-1.096,0.104-1.548,0.318
		c-0.452,0.215-0.81,0.516-1.067,0.9c-0.184,0.262-0.312,0.593-0.382,1.002c-0.074,0.405-0.109,1.052-0.109,1.944v4.929H66.399
		L66.399,30.746z M12.323,15.025c4.815,0,8.863,3.289,10.02,7.743v-2.846h2.331v1.776c0.495-0.747,1.075-1.294,1.746-1.637
		c0.67-0.343,1.485-0.514,2.447-0.514c0.807,0,1.493,0.128,2.062,0.382c0.565,0.256,1.009,0.635,1.329,1.138
		c0.191,0.296,0.328,0.644,0.414,1.04c0.082,0.395,0.125,1.088,0.125,2.077v6.562h-2.502V25.19c0-1.423-0.171-2.37-0.518-2.837
		c-0.347-0.468-0.962-0.701-1.847-0.701c-0.577,0-1.095,0.104-1.547,0.318c-0.452,0.215-0.811,0.516-1.068,0.9
		c-0.183,0.262-0.312,0.593-0.382,1.002c-0.074,0.405-0.109,1.052-0.109,1.944v4.929h-2.478v-2.759
		c-0.641,2.466-2.167,4.575-4.22,5.966v-4.946l-1.137-0.614l-1.649-0.892c-0.683,1.013-1.841,1.679-3.156,1.679
		c-1.984,0-3.613-1.518-3.788-3.457h7.576h1.399h0.754v-1.215l0,0v-4.895h-2.389v0.922c-0.994-0.73-2.223-1.162-3.552-1.162
		c-3.315,0-6.004,2.688-6.004,6.004c0,3.315,2.688,6.004,6.004,6.004c1.33,0,2.558-0.432,3.552-1.163v4.936
		c-1.067,0.372-2.215,0.575-3.41,0.575c-5.717,0-10.352-4.635-10.352-10.352S6.605,15.025,12.323,15.025L12.323,15.025z
		 M15.733,24.015v0.011H8.625c0.545-1.434,1.931-2.453,3.556-2.453C13.802,21.572,15.185,22.587,15.733,24.015L15.733,24.015z
		 M42.873,25.299c0-1.118-0.261-1.991-0.783-2.614c-0.522-0.628-1.251-0.938-2.186-0.938c-0.939,0-1.676,0.322-2.209,0.965
		c-0.538,0.643-0.807,1.541-0.807,2.682c0,1.149,0.257,2.038,0.775,2.662c0.519,0.627,1.251,0.938,2.194,0.938
		c0.893,0,1.617-0.339,2.175-1.017C42.592,27.298,42.873,26.406,42.873,25.299L42.873,25.299z M45.282,30.076
		c0,2.117-0.421,3.604-1.267,4.471c-0.846,0.864-2.271,1.297-4.274,1.297c-1.493,0-2.685-0.316-3.574-0.947
		c-0.892-0.627-1.344-1.465-1.36-2.513l2.662-0.013c0.039,0.469,0.257,0.827,0.65,1.072c0.398,0.246,0.956,0.366,1.668,0.366
		c1.06,0,1.82-0.233,2.284-0.697c0.467-0.464,0.701-1.243,0.708-2.331l0.024-1.434c-0.44,0.619-0.959,1.084-1.547,1.388
		c-0.592,0.304-1.266,0.456-2.03,0.456c-1.527,0-2.735-0.523-3.612-1.57c-0.881-1.045-1.321-2.479-1.321-4.299
		c0-1.727,0.448-3.121,1.348-4.181c0.9-1.063,2.073-1.594,3.519-1.594c0.885,0,1.641,0.183,2.269,0.553
		c0.627,0.366,1.087,0.896,1.375,1.587v-1.766h2.479V30.076L45.282,30.076z M47.684,30.746V15.811h2.479v14.935H47.684
		L47.684,30.746z M52.686,30.746V19.922h2.478v10.824H52.686L52.686,30.746z M56.331,28.782l2.059-1.122
		c0.151,0.543,0.432,0.955,0.844,1.235c0.41,0.284,0.94,0.425,1.584,0.425c0.557,0,0.993-0.128,1.309-0.382
		c0.315-0.257,0.471-0.603,0.471-1.048c0-0.585-0.561-1.087-1.688-1.508c-0.377-0.137-0.674-0.25-0.877-0.344
		c-1.156-0.479-1.967-0.966-2.426-1.461c-0.461-0.491-0.691-1.095-0.691-1.8c0-0.967,0.379-1.75,1.135-2.354
		c0.76-0.6,1.762-0.9,3.008-0.9c0.838,0,1.555,0.156,2.152,0.464c0.596,0.308,1.032,0.745,1.305,1.317l-1.758,1.212
		c-0.128-0.343-0.354-0.615-0.678-0.818c-0.323-0.202-0.697-0.304-1.122-0.304c-0.472,0-0.851,0.113-1.134,0.336
		c-0.285,0.226-0.429,0.525-0.429,0.899c0,0.562,0.638,1.076,1.913,1.539c0.405,0.145,0.717,0.265,0.936,0.354
		c0.997,0.398,1.711,0.842,2.143,1.34c0.429,0.5,0.643,1.123,0.643,1.867c0,1.084-0.393,1.93-1.176,2.541
		c-0.784,0.611-1.863,0.92-3.242,0.92c-1.057,0-1.938-0.199-2.635-0.592C57.274,30.201,56.728,29.598,56.331,28.782L56.331,28.782z"
		/>
	<path fill-rule="evenodd" clip-rule="evenodd" fill="#ED2E39" d="M53.924,15.811c0.699,0,1.268,0.567,1.268,1.266
		c0,0.7-0.568,1.267-1.268,1.267s-1.267-0.567-1.267-1.267C52.658,16.378,53.225,15.811,53.924,15.811L53.924,15.811z"/>
</g>
</svg>
