<svg id="Layer_1" enable-background="new 0 0 512 512" height="512" viewBox="0 0 512 512" width="512" xmlns="http://www.w3.org/2000/svg"><g><path d="m256 0c-8.284 0-15 6.716-15 15v482c0 8.284 6.716 15 15 15s15-6.716 15-15v-482c0-8.284-6.716-15-15-15z"/><path d="m316 77.092c-8.284 0-15 6.716-15 15v327.815c0 8.284 6.716 15 15 15s15-6.716 15-15v-327.815c0-8.284-6.716-15-15-15z"/><path d="m376 145.435c-8.284 0-15 6.716-15 15v191.131c0 8.284 6.716 15 15 15s15-6.716 15-15v-191.131c0-8.285-6.716-15-15-15z"/><path d="m436 182.226c-8.284 0-15 6.716-15 15v117.548c0 8.284 6.716 15 15 15s15-6.716 15-15v-117.548c0-8.284-6.716-15-15-15z"/><path d="m496 212.226c-8.284 0-15 6.716-15 15v57.548c0 8.284 6.716 15 15 15s15-6.716 15-15v-57.548c0-8.284-6.716-15-15-15z"/><path d="m196 77.092c-8.284 0-15 6.716-15 15v327.815c0 8.284 6.716 15 15 15s15-6.716 15-15v-327.815c0-8.284-6.716-15-15-15z"/><path d="m136 145.435c-8.284 0-15 6.716-15 15v191.131c0 8.284 6.716 15 15 15s15-6.716 15-15v-191.131c0-8.285-6.716-15-15-15z"/><path d="m76 182.226c-8.284 0-15 6.716-15 15v117.548c0 8.284 6.716 15 15 15s15-6.716 15-15v-117.548c0-8.284-6.716-15-15-15z"/><path d="m16 212.226c-8.284 0-15 6.716-15 15v57.548c0 8.284 6.716 15 15 15s15-6.716 15-15v-57.548c0-8.284-6.716-15-15-15z"/></g></svg>