<?xml version="1.0" encoding="iso-8859-1"?>
<!-- Generator: Adobe Illustrator 19.0.0, SVG Export Plug-In . SVG Version: 6.00 Build 0)  -->
<svg version="1.1" id="Capa_1" xmlns="http://www.w3.org/2000/svg" xmlns:xlink="http://www.w3.org/1999/xlink" x="0px" y="0px"
	 viewBox="0 0 512 512" style="enable-background:new 0 0 512 512;" xml:space="preserve">
<g>
	<g>
		<rect x="50.16" y="238.01" width="30" height="35.988"/>
	</g>
</g>
<g>
	<g>
		<rect x="92.57" y="222.78" width="30" height="66.44"/>
	</g>
</g>
<g>
	<g>
		<rect x="134.98" y="204.78" width="30" height="102.43"/>
	</g>
</g>
<g>
	<g>
		<rect x="177.39" y="172.95" width="30" height="166.11"/>
	</g>
</g>
<g>
	<g>
		<rect x="219.8" y="97.5" width="30" height="316.99"/>
	</g>
</g>
<g>
	<g>
		<rect x="262.2" y="124.5" width="30" height="263.01"/>
	</g>
</g>
<g>
	<g>
		<rect x="304.61" y="178.48" width="30" height="155.03"/>
	</g>
</g>
<g>
	<g>
		<rect x="347.02" y="211.01" width="30" height="89.98"/>
	</g>
</g>
<g>
	<g>
		<rect x="389.43" y="224.85" width="30" height="62.29"/>
	</g>
</g>
<g>
	<g>
		<rect x="431.84" y="238.01" width="30" height="35.988"/>
	</g>
</g>
<g>
	<g>
		<path d="M437.02,74.98C388.667,26.629,324.38,0,256,0S123.333,26.629,74.98,74.98C26.629,123.333,0,187.62,0,256
			s26.629,132.667,74.98,181.02C123.333,485.371,187.62,512,256,512s132.667-26.629,181.02-74.98
			C485.371,388.667,512,324.38,512,256S485.371,123.333,437.02,74.98z M415.806,415.806C373.12,458.492,316.367,482,256,482
			s-117.12-23.508-159.806-66.194C53.508,373.12,30,316.367,30,256S53.508,138.88,96.194,96.194C138.88,53.508,195.633,30,256,30
			s117.12,23.508,159.806,66.194C458.492,138.88,482,195.633,482,256S458.492,373.12,415.806,415.806z"/>
	</g>
</g>
<g>
</g>
<g>
</g>
<g>
</g>
<g>
</g>
<g>
</g>
<g>
</g>
<g>
</g>
<g>
</g>
<g>
</g>
<g>
</g>
<g>
</g>
<g>
</g>
<g>
</g>
<g>
</g>
<g>
</g>
</svg>
