<svg height="512" viewBox="0 0 128 128" width="512" xmlns="http://www.w3.org/2000/svg"><g><path d="m63.979 50.562a13.73 13.73 0 1 0 13.721 13.72 13.736 13.736 0 0 0 -13.721-13.72z"/><path d="m84.727 43.209a4.325 4.325 0 0 0 -3.054-1.251h-.034a4.354 4.354 0 0 0 -3.021 7.457 20.866 20.866 0 0 1 .23 29.5 4.354 4.354 0 1 0 6.206 6.108 29.572 29.572 0 0 0 -.326-41.818z"/><path d="m43.116 64.282a20.726 20.726 0 0 1 6.111-14.752 4.354 4.354 0 0 0 -6.158-6.158 29.57 29.57 0 0 0 0 41.819 4.354 4.354 0 0 0 6.158-6.157 20.726 20.726 0 0 1 -6.111-14.752z"/><path d="m95.318 32.635a4.355 4.355 0 0 0 -6.129 6.189 35.824 35.824 0 0 1 .249 50.667 4.355 4.355 0 0 0 6.189 6.129 44.54 44.54 0 0 0 -.308-62.985z"/><path d="m28.151 64.282a35.6 35.6 0 0 1 10.494-25.335 4.354 4.354 0 0 0 -6.158-6.157 44.534 44.534 0 0 0 0 62.983 4.354 4.354 0 1 0 6.158-6.156 35.6 35.6 0 0 1 -10.494-25.335z"/><path d="m107.225 20.555a4.354 4.354 0 0 0 -7.416 3.119 4.314 4.314 0 0 0 1.292 3.072 52.791 52.791 0 0 1 .335 74.737 4.355 4.355 0 0 0 6.18 6.137 79.222 79.222 0 0 0 6.486-7.679 44.642 44.642 0 0 0 4.613-7.557 61.595 61.595 0 0 0 -11.49-71.829z"/><path d="m11.187 64.282a52.446 52.446 0 0 1 15.462-37.329 4.354 4.354 0 1 0 -6.157-6.153 62.063 62.063 0 0 0 -8.877 11.19c-.183.3-4.512 7.318-6.1 13.117a73.619 73.619 0 0 0 -3.037 19.18 61.1 61.1 0 0 0 18.013 43.487 4.354 4.354 0 1 0 6.157-6.158 52.446 52.446 0 0 1 -15.461-37.334z"/></g></svg>
